<svg width="187" height="48" viewBox="0 0 187 48" fill="none" xmlns="http://www.w3.org/2000/svg">
<path d="M24 32C25.6 32 27.025 31.525 28.275 30.575C29.525 29.625 30.4333 28.4 31 26.9H17C17.5667 28.4 18.475 29.625 19.725 30.575C20.975 31.525 22.4 32 24 32ZM19 24C19.8333 24 20.5417 23.7083 21.125 23.125C21.7083 22.5417 22 21.8333 22 21C22 20.1667 21.7083 19.4583 21.125 18.875C20.5417 18.2917 19.8333 18 19 18C18.1667 18 17.4583 18.2917 16.875 18.875C16.2917 19.4583 16 20.1667 16 21C16 21.8333 16.2917 22.5417 16.875 23.125C17.4583 23.7083 18.1667 24 19 24ZM29 24C29.8333 24 30.5417 23.7083 31.125 23.125C31.7083 22.5417 32 21.8333 32 21C32 20.1667 31.7083 19.4583 31.125 18.875C30.5417 18.2917 29.8333 18 29 18C28.1667 18 27.4583 18.2917 26.875 18.875C26.2917 19.4583 26 20.1667 26 21C26 21.8333 26.2917 22.5417 26.875 23.125C27.4583 23.7083 28.1667 24 29 24ZM15.25 12.8L20.85 5.55C21.25 5.01667 21.725 4.625 22.275 4.375C22.825 4.125 23.4 4 24 4C24.6 4 25.175 4.125 25.725 4.375C26.275 4.625 26.75 5.01667 27.15 5.55L32.75 12.8L41.25 15.65C42.1167 15.9167 42.8 16.4083 43.3 17.125C43.8 17.8417 44.05 18.6333 44.05 19.5C44.05 19.9 43.9917 20.3 43.875 20.7C43.7583 21.1 43.5667 21.4833 43.3 21.85L37.8 29.65L38 37.85C38.0333 39.0167 37.65 40 36.85 40.8C36.05 41.6 35.1167 42 34.05 42C33.9833 42 33.6167 41.95 32.95 41.85L24 39.35L15.05 41.85C14.8833 41.9167 14.7 41.9583 14.5 41.975C14.3 41.9917 14.1167 42 13.95 42C12.8833 42 11.95 41.6 11.15 40.8C10.35 40 9.96667 39.0167 10 37.85L10.2 29.6L4.75 21.85C4.48333 21.4833 4.29167 21.1 4.175 20.7C4.05833 20.3 4 19.9 4 19.5C4 18.6667 4.24167 17.8917 4.725 17.175C5.20833 16.4583 5.88333 15.95 6.75 15.65L15.25 12.8Z" fill="#F2BF5E"/>
<path d="M64.16 21.18C64.2267 21.3667 64.2733 21.58 64.3 21.82C64.34 22.0467 64.36 22.28 64.36 22.52C64.36 22.76 64.34 23 64.3 23.24C64.2733 23.4667 64.2333 23.6667 64.18 23.84C63.9667 24.5867 63.54 25.2133 62.9 25.72C62.26 26.2133 61.5267 26.5733 60.7 26.8C59.8867 27.0267 59.04 27.1067 58.16 27.04C57.2933 26.9733 56.52 26.7533 55.84 26.38C55.4133 26.14 55.0467 25.8467 54.74 25.5C54.4333 25.1533 54.1733 24.7667 53.96 24.34C53.88 24.1933 53.8267 24.0267 53.8 23.84C53.7867 23.64 53.8067 23.4533 53.86 23.28C53.9133 23.0933 54 22.9333 54.12 22.8C54.24 22.6533 54.4067 22.5533 54.62 22.5C54.7533 22.4733 54.9 22.46 55.06 22.46C55.2333 22.46 55.4 22.4867 55.56 22.54C55.72 22.58 55.8667 22.6533 56 22.76C56.1333 22.8533 56.24 22.9867 56.32 23.16C56.4667 23.44 56.6733 23.7 56.94 23.94C57.22 24.1667 57.5133 24.3533 57.82 24.5C58.26 24.6467 58.7 24.7067 59.14 24.68C59.5933 24.6533 60 24.5533 60.36 24.38C60.7333 24.2067 61.0333 23.9733 61.26 23.68C61.4867 23.3733 61.6 23.0267 61.6 22.64C61.6 22.32 61.5533 22.06 61.46 21.86C61.3667 21.6467 61.2333 21.4733 61.06 21.34C60.9 21.1933 60.7 21.0733 60.46 20.98C60.2333 20.8867 59.98 20.8067 59.7 20.74C59.38 20.6733 59.0533 20.6267 58.72 20.6C58.4 20.5733 58.0733 20.54 57.74 20.5C57.4067 20.46 57.08 20.4067 56.76 20.34C56.44 20.2733 56.1267 20.1733 55.82 20.04C55.2067 19.7867 54.74 19.4 54.42 18.88C54.1 18.36 53.9067 17.8 53.84 17.2C53.7867 16.6 53.86 16.0067 54.06 15.42C54.26 14.82 54.58 14.3067 55.02 13.88C55.4467 13.4933 55.9533 13.22 56.54 13.06C57.14 12.8867 57.8 12.7867 58.52 12.76C58.92 12.7467 59.32 12.76 59.72 12.8C60.1333 12.84 60.5267 12.9067 60.9 13C61.2867 13.0933 61.64 13.2133 61.96 13.36C62.2933 13.5067 62.58 13.68 62.82 13.88C62.9933 14.0133 63.1667 14.1933 63.34 14.42C63.5133 14.6333 63.6467 14.8667 63.74 15.12C63.8333 15.36 63.86 15.5933 63.82 15.82C63.7933 16.0467 63.6533 16.24 63.4 16.4C63.1867 16.5333 62.98 16.5933 62.78 16.58C62.5933 16.5533 62.4133 16.4933 62.24 16.4C62.0667 16.2933 61.9 16.1733 61.74 16.04C61.58 15.9067 61.4333 15.7867 61.3 15.68C60.94 15.4133 60.4933 15.2333 59.96 15.14C59.4267 15.0467 58.9267 15.0267 58.46 15.08C58.1667 15.12 57.8933 15.1867 57.64 15.28C57.3867 15.3733 57.1667 15.5 56.98 15.66C56.8067 15.82 56.6667 16.02 56.56 16.26C56.4667 16.4867 56.4333 16.7467 56.46 17.04C56.4733 17.2533 56.5333 17.4333 56.64 17.58C56.76 17.7267 56.9 17.8467 57.06 17.94C57.2333 18.0333 57.42 18.1067 57.62 18.16C57.82 18.2133 58.02 18.2533 58.22 18.28C58.82 18.36 59.42 18.42 60.02 18.46C60.62 18.5 61.2067 18.6333 61.78 18.86C62.3667 19.0867 62.8667 19.3933 63.28 19.78C63.6933 20.1667 63.9867 20.6333 64.16 21.18ZM76.888 13.94C76.968 14.58 77.0146 15.3267 77.028 16.18C77.0413 17.02 77.028 17.8733 76.988 18.74C76.9613 19.5933 76.9013 20.4067 76.808 21.18C76.7146 21.94 76.6013 22.5533 76.468 23.02C76.3746 23.3 76.2613 23.5933 76.128 23.9C76.008 24.1933 75.8746 24.46 75.728 24.7C75.5146 25.06 75.2546 25.38 74.948 25.66C74.6413 25.9267 74.3013 26.16 73.928 26.36C73.568 26.5467 73.1813 26.6933 72.768 26.8C72.368 26.9067 71.968 26.9667 71.568 26.98C70.8613 27.0067 70.188 26.9067 69.548 26.68C68.9213 26.44 68.3413 26.0667 67.808 25.56C67.408 25.1733 67.088 24.76 66.848 24.32C66.608 23.88 66.4213 23.42 66.288 22.94C66.1546 22.4467 66.068 21.94 66.028 21.42C66.0013 20.9 65.988 20.3667 65.988 19.82C65.988 19.5667 65.9813 19.2533 65.968 18.88C65.968 18.4933 65.968 18.1 65.968 17.7C65.968 17.2867 65.968 16.8867 65.968 16.5C65.968 16.1133 65.9746 15.7867 65.988 15.52C65.988 15.3467 65.988 15.16 65.988 14.96C65.988 14.7467 65.9946 14.54 66.008 14.34C66.0346 14.1267 66.0746 13.9267 66.128 13.74C66.1813 13.54 66.2613 13.36 66.368 13.2C66.488 13.0267 66.6546 12.9 66.868 12.82C67.0813 12.74 67.3013 12.7 67.528 12.7C67.768 12.7 67.9946 12.7467 68.208 12.84C68.4213 12.9333 68.5946 13.0667 68.728 13.24C68.7946 13.3467 68.8413 13.4533 68.868 13.56C68.8946 13.6667 68.9146 13.7867 68.928 13.92C68.9546 14.36 68.968 14.86 68.968 15.42C68.9813 15.98 68.9813 16.5267 68.968 17.06C68.968 17.58 68.9613 18.06 68.948 18.5C68.9346 18.94 68.928 19.2667 68.928 19.48C68.928 20.28 68.968 21.0067 69.048 21.66C69.128 22.3 69.3146 22.8333 69.608 23.26C69.8746 23.6467 70.188 23.8933 70.548 24C70.908 24.1067 71.268 24.14 71.628 24.1C71.9613 24.06 72.2946 23.94 72.628 23.74C72.9746 23.5267 73.248 23.22 73.448 22.82C73.528 22.6733 73.5946 22.5067 73.648 22.32C73.7013 22.1333 73.7413 21.96 73.768 21.8C73.8213 21.2933 73.868 20.7067 73.908 20.04C73.948 19.36 73.9813 18.6667 74.008 17.96C74.0346 17.2533 74.048 16.56 74.048 15.88C74.048 15.2 74.0413 14.5867 74.028 14.04C74.0546 13.8 74.128 13.58 74.248 13.38C74.3546 13.2067 74.508 13.0533 74.708 12.92C74.908 12.7867 75.1813 12.72 75.528 12.72C75.808 12.7333 76.0346 12.8067 76.208 12.94C76.3813 13.06 76.5213 13.1933 76.628 13.34C76.748 13.5133 76.8346 13.7133 76.888 13.94ZM90.8238 25.56C90.8104 25.72 90.7904 25.8867 90.7638 26.06C90.7371 26.2333 90.6904 26.3933 90.6238 26.54C90.5571 26.7 90.4704 26.82 90.3638 26.9C90.2171 27.0333 90.0438 27.1067 89.8438 27.12C89.6571 27.1867 89.4771 27.2067 89.3038 27.18C89.1304 27.1533 88.9704 27.1067 88.8238 27.04C88.6371 26.92 88.4971 26.78 88.4037 26.62C88.3238 26.4467 88.2638 26.2667 88.2238 26.08C88.1838 25.8933 88.1638 25.7 88.1638 25.5C88.1638 25.3 88.1638 25.1133 88.1638 24.94V23.38L88.1438 20.32C88.1438 20.1067 88.1438 19.94 88.1438 19.82C88.1438 19.7 88.1438 19.5933 88.1438 19.5C88.1438 19.3933 88.1371 19.28 88.1237 19.16C88.1237 19.0267 88.1237 18.84 88.1237 18.6C88.1237 18.56 88.1237 18.4933 88.1237 18.4C88.1371 18.2933 88.1304 18.02 88.1038 17.58C87.5838 18.4467 87.1504 19.1467 86.8038 19.68C86.4704 20.2 86.1838 20.6067 85.9438 20.9C85.7171 21.18 85.5171 21.3733 85.3438 21.48C85.1704 21.5733 84.9904 21.6267 84.8038 21.64C84.6971 21.6533 84.5904 21.6333 84.4838 21.58C84.3771 21.5267 84.2704 21.46 84.1638 21.38C84.0704 21.3 83.9771 21.22 83.8838 21.14C83.8038 21.0467 83.7371 20.96 83.6838 20.88C83.3638 20.48 83.0038 20 82.6038 19.44C82.2038 18.88 81.7904 18.2 81.3638 17.4C81.3638 17.4133 81.3571 17.6333 81.3438 18.06C81.3438 18.4867 81.3438 19.02 81.3438 19.66C81.3438 20.2867 81.3371 20.9667 81.3238 21.7C81.3238 22.42 81.3171 23.0933 81.3038 23.72C81.3038 24.3467 81.2971 24.8733 81.2838 25.3C81.2704 25.7133 81.2571 25.92 81.2438 25.92C81.2438 26.1467 81.1904 26.36 81.0838 26.56C80.9771 26.7467 80.8304 26.9 80.6438 27.02C80.4704 27.14 80.2638 27.2067 80.0238 27.22C79.7838 27.2333 79.5238 27.1667 79.2438 27.02C79.0704 26.9133 78.9371 26.76 78.8438 26.56C78.7638 26.36 78.7104 26.1733 78.6838 26C78.6704 25.8133 78.6571 25.6333 78.6438 25.46C78.6438 25.2867 78.6438 25.1067 78.6438 24.92L78.6638 23.36L78.6838 20.28V17.6C78.6838 16.44 78.7238 15.3 78.8038 14.18C78.8038 14.0333 78.8171 13.9 78.8438 13.78C78.8838 13.6467 78.9304 13.52 78.9838 13.4C79.0904 13.1867 79.2304 13.0267 79.4038 12.92C79.6038 12.8 79.8171 12.74 80.0438 12.74C80.1371 12.74 80.2238 12.7467 80.3038 12.76C80.3971 12.76 80.4838 12.7667 80.5638 12.78C80.8304 12.8333 81.0571 12.9933 81.2438 13.26C81.4438 13.5133 81.6304 13.7333 81.8038 13.92C81.9104 14.04 82.0238 14.1867 82.1438 14.36C82.2638 14.5333 82.3838 14.7133 82.5038 14.9C82.6238 15.0867 82.7371 15.2667 82.8438 15.44C82.9504 15.6133 83.0438 15.7667 83.1237 15.9C83.4704 16.46 83.7771 16.9733 84.0438 17.44C84.3238 17.9067 84.5838 18.3067 84.8238 18.64C84.8638 18.6 84.9104 18.5467 84.9638 18.48C85.0171 18.4 85.0704 18.32 85.1238 18.24C85.1904 18.1467 85.2438 18.06 85.2838 17.98C85.3371 17.9 85.3771 17.8333 85.4038 17.78C85.5371 17.5667 85.6704 17.36 85.8038 17.16C85.9371 16.9467 86.0771 16.7267 86.2238 16.5C86.3838 16.26 86.5438 16 86.7038 15.72C86.8771 15.44 87.0771 15.12 87.3038 14.76C87.3971 14.6 87.5171 14.4067 87.6638 14.18C87.8104 13.9533 87.9771 13.7333 88.1638 13.52C88.3504 13.3067 88.5438 13.1267 88.7438 12.98C88.9571 12.82 89.1704 12.74 89.3838 12.74C89.4904 12.74 89.5838 12.7467 89.6638 12.76C89.7438 12.76 89.8238 12.7667 89.9038 12.78C90.0638 12.7933 90.2171 12.8667 90.3638 13C90.4704 13.1067 90.5504 13.22 90.6038 13.34C90.6571 13.5133 90.6904 13.66 90.7038 13.78C90.7171 13.8733 90.7238 13.96 90.7238 14.04C90.7371 14.12 90.7438 14.2 90.7438 14.28C90.7438 15.0267 90.7504 15.7667 90.7638 16.5C90.7771 17.2333 90.7838 17.9733 90.7838 18.72C90.7838 19.6267 90.7838 20.56 90.7838 21.52C90.7971 22.48 90.8038 23.4133 90.8038 24.32C90.8038 24.5067 90.8104 24.7067 90.8238 24.92C90.8371 25.1333 90.8371 25.3467 90.8238 25.56ZM105.023 25.56C105.01 25.72 104.99 25.8867 104.963 26.06C104.936 26.2333 104.89 26.3933 104.823 26.54C104.756 26.7 104.67 26.82 104.563 26.9C104.416 27.0333 104.243 27.1067 104.043 27.12C103.856 27.1867 103.676 27.2067 103.503 27.18C103.33 27.1533 103.17 27.1067 103.023 27.04C102.836 26.92 102.696 26.78 102.603 26.62C102.523 26.4467 102.463 26.2667 102.423 26.08C102.383 25.8933 102.363 25.7 102.363 25.5C102.363 25.3 102.363 25.1133 102.363 24.94V23.38L102.343 20.32C102.343 20.1067 102.343 19.94 102.343 19.82C102.343 19.7 102.343 19.5933 102.343 19.5C102.343 19.3933 102.336 19.28 102.323 19.16C102.323 19.0267 102.323 18.84 102.323 18.6C102.323 18.56 102.323 18.4933 102.323 18.4C102.336 18.2933 102.33 18.02 102.303 17.58C101.783 18.4467 101.35 19.1467 101.003 19.68C100.67 20.2 100.383 20.6067 100.143 20.9C99.9163 21.18 99.7163 21.3733 99.543 21.48C99.3696 21.5733 99.1896 21.6267 99.003 21.64C98.8963 21.6533 98.7896 21.6333 98.683 21.58C98.5763 21.5267 98.4696 21.46 98.363 21.38C98.2696 21.3 98.1763 21.22 98.083 21.14C98.003 21.0467 97.9363 20.96 97.883 20.88C97.563 20.48 97.203 20 96.803 19.44C96.403 18.88 95.9896 18.2 95.563 17.4C95.563 17.4133 95.5563 17.6333 95.543 18.06C95.543 18.4867 95.543 19.02 95.543 19.66C95.543 20.2867 95.5363 20.9667 95.523 21.7C95.523 22.42 95.5163 23.0933 95.503 23.72C95.503 24.3467 95.4963 24.8733 95.483 25.3C95.4696 25.7133 95.4563 25.92 95.443 25.92C95.443 26.1467 95.3896 26.36 95.283 26.56C95.1763 26.7467 95.0296 26.9 94.843 27.02C94.6696 27.14 94.463 27.2067 94.223 27.22C93.983 27.2333 93.723 27.1667 93.443 27.02C93.2696 26.9133 93.1363 26.76 93.043 26.56C92.963 26.36 92.9096 26.1733 92.883 26C92.8696 25.8133 92.8563 25.6333 92.843 25.46C92.843 25.2867 92.843 25.1067 92.843 24.92L92.863 23.36L92.883 20.28V17.6C92.883 16.44 92.923 15.3 93.003 14.18C93.003 14.0333 93.0163 13.9 93.043 13.78C93.083 13.6467 93.1296 13.52 93.183 13.4C93.2896 13.1867 93.4296 13.0267 93.603 12.92C93.803 12.8 94.0163 12.74 94.243 12.74C94.3363 12.74 94.423 12.7467 94.503 12.76C94.5963 12.76 94.683 12.7667 94.763 12.78C95.0296 12.8333 95.2563 12.9933 95.443 13.26C95.643 13.5133 95.8296 13.7333 96.003 13.92C96.1096 14.04 96.223 14.1867 96.343 14.36C96.463 14.5333 96.583 14.7133 96.703 14.9C96.823 15.0867 96.9363 15.2667 97.043 15.44C97.1496 15.6133 97.243 15.7667 97.323 15.9C97.6696 16.46 97.9763 16.9733 98.243 17.44C98.523 17.9067 98.783 18.3067 99.023 18.64C99.063 18.6 99.1096 18.5467 99.163 18.48C99.2163 18.4 99.2696 18.32 99.323 18.24C99.3896 18.1467 99.443 18.06 99.483 17.98C99.5363 17.9 99.5763 17.8333 99.603 17.78C99.7363 17.5667 99.8696 17.36 100.003 17.16C100.136 16.9467 100.276 16.7267 100.423 16.5C100.583 16.26 100.743 16 100.903 15.72C101.076 15.44 101.276 15.12 101.503 14.76C101.596 14.6 101.716 14.4067 101.863 14.18C102.01 13.9533 102.176 13.7333 102.363 13.52C102.55 13.3067 102.743 13.1267 102.943 12.98C103.156 12.82 103.37 12.74 103.583 12.74C103.69 12.74 103.783 12.7467 103.863 12.76C103.943 12.76 104.023 12.7667 104.103 12.78C104.263 12.7933 104.416 12.8667 104.563 13C104.67 13.1067 104.75 13.22 104.803 13.34C104.856 13.5133 104.89 13.66 104.903 13.78C104.916 13.8733 104.923 13.96 104.923 14.04C104.936 14.12 104.943 14.2 104.943 14.28C104.943 15.0267 104.95 15.7667 104.963 16.5C104.976 17.2333 104.983 17.9733 104.983 18.72C104.983 19.6267 104.983 20.56 104.983 21.52C104.996 22.48 105.003 23.4133 105.003 24.32C105.003 24.5067 105.01 24.7067 105.023 24.92C105.036 25.1333 105.036 25.3467 105.023 25.56ZM109.392 15.24L109.352 18.38H110.152C110.698 18.3667 111.185 18.36 111.612 18.36C112.038 18.36 112.512 18.3667 113.032 18.38H113.132C113.292 18.38 113.445 18.3867 113.592 18.4C113.752 18.4 113.905 18.4 114.052 18.4C114.212 18.4133 114.365 18.44 114.512 18.48C114.658 18.5067 114.805 18.54 114.952 18.58C115.178 18.66 115.365 18.78 115.512 18.94C115.645 19.1133 115.712 19.3067 115.712 19.52C115.712 19.5867 115.712 19.6667 115.712 19.76C115.712 19.84 115.698 19.9133 115.672 19.98C115.645 20.1267 115.558 20.26 115.412 20.38C115.345 20.4733 115.218 20.54 115.032 20.58C114.858 20.6333 114.685 20.6667 114.512 20.68C114.325 20.72 114.138 20.74 113.952 20.74H113.012L109.312 20.76L109.272 24.68L113.252 24.72H114.192C114.298 24.72 114.398 24.72 114.492 24.72C114.585 24.72 114.672 24.7267 114.752 24.74C114.858 24.7667 114.952 24.7867 115.032 24.8C115.125 24.8 115.212 24.8133 115.292 24.84C115.452 24.8933 115.585 24.9667 115.692 25.06C115.825 25.1933 115.912 25.3333 115.952 25.48C115.965 25.5467 115.972 25.62 115.972 25.7C115.985 25.7667 115.985 25.84 115.972 25.92C115.972 26.1333 115.905 26.3267 115.772 26.5C115.612 26.6867 115.425 26.8067 115.212 26.86C114.932 26.98 114.625 27.04 114.292 27.04C114.145 27.0533 113.992 27.06 113.832 27.06C113.672 27.06 113.518 27.0667 113.372 27.08H113.252C112.212 27.1067 111.132 27.1067 110.012 27.08C109.745 27.08 109.532 27.0733 109.372 27.06C109.212 27.06 109.065 27.06 108.932 27.06C108.812 27.06 108.685 27.06 108.552 27.06C108.418 27.06 108.245 27.06 108.032 27.06C107.725 27.0867 107.472 27.0333 107.272 26.9C107.125 26.8067 107.012 26.68 106.932 26.52C106.892 26.48 106.872 26.44 106.872 26.4C106.858 26.3733 106.845 26.3533 106.832 26.34C106.818 26.3267 106.805 26.3067 106.792 26.28C106.765 26.2133 106.745 26.1467 106.732 26.08C106.718 26 106.712 25.9267 106.712 25.86C106.698 25.7933 106.685 25.7267 106.672 25.66C106.672 25.5933 106.665 25.5267 106.652 25.46V25.14C106.652 25.0867 106.652 25.0333 106.652 24.98C106.665 24.9267 106.672 24.8733 106.672 24.82V23.26L106.712 20.38V17.72C106.712 17.24 106.712 16.8133 106.712 16.44C106.725 16.0667 106.738 15.66 106.752 15.22V15.12C106.765 14.9733 106.772 14.84 106.772 14.72C106.785 14.5867 106.792 14.4533 106.792 14.32C106.805 14.0533 106.878 13.7933 107.012 13.54C107.065 13.4333 107.118 13.34 107.172 13.26C107.238 13.18 107.325 13.1133 107.432 13.06C107.632 12.94 107.838 12.88 108.052 12.88C108.158 12.88 108.238 12.8867 108.292 12.9V12.88C108.532 12.88 108.725 12.88 108.872 12.88C109.018 12.88 109.158 12.88 109.292 12.88C109.438 12.88 109.592 12.88 109.752 12.88C109.912 12.8667 110.132 12.86 110.412 12.86C110.945 12.8467 111.452 12.84 111.932 12.84C112.412 12.84 112.905 12.8467 113.412 12.86H113.492C113.638 12.8733 113.792 12.88 113.952 12.88C114.112 12.88 114.265 12.8867 114.412 12.9C114.558 12.9 114.705 12.92 114.852 12.96C114.998 12.9867 115.145 13.0267 115.292 13.08C115.518 13.1467 115.705 13.26 115.852 13.42C115.972 13.6067 116.032 13.7933 116.032 13.98C116.032 14.06 116.032 14.14 116.032 14.22C116.032 14.2867 116.018 14.3533 115.992 14.42C115.978 14.5533 115.898 14.6933 115.752 14.84C115.698 14.8667 115.638 14.9 115.572 14.94C115.518 14.98 115.452 15.0133 115.372 15.04C115.292 15.0667 115.205 15.0867 115.112 15.1C115.032 15.1 114.952 15.1067 114.872 15.12C114.765 15.1467 114.665 15.16 114.572 15.16C114.492 15.16 114.398 15.16 114.292 15.16H113.392L109.392 15.18V15.24ZM127.948 26.12C127.961 26.2533 127.948 26.38 127.908 26.5C127.881 26.58 127.841 26.6467 127.788 26.7C127.748 26.7533 127.695 26.8067 127.628 26.86C127.508 26.94 127.361 27.0133 127.188 27.08C127.081 27.1067 126.975 27.1267 126.868 27.14C126.775 27.1667 126.675 27.1667 126.568 27.14C126.355 27.1267 126.168 27.0467 126.008 26.9C125.781 26.7133 125.595 26.5067 125.448 26.28C125.381 26.1733 125.308 26.0533 125.228 25.92C125.148 25.7867 125.075 25.6467 125.008 25.5L122.788 21.28C122.681 21.28 122.575 21.2867 122.468 21.3C122.361 21.3 122.255 21.3067 122.148 21.32C121.868 21.3467 121.601 21.3533 121.348 21.34C121.108 21.3267 120.855 21.3267 120.588 21.34H120.208V24.96C120.208 25.0667 120.201 25.1667 120.188 25.26C120.188 25.3533 120.188 25.4533 120.188 25.56C120.188 25.6267 120.181 25.7133 120.168 25.82C120.168 25.9267 120.161 26.0267 120.148 26.12C120.121 26.2667 120.061 26.42 119.968 26.58C119.875 26.7267 119.748 26.8533 119.588 26.96C119.308 27.1333 118.968 27.18 118.568 27.1C118.395 27.06 118.228 26.9933 118.068 26.9C118.015 26.86 117.968 26.8133 117.928 26.76C117.888 26.6933 117.855 26.6267 117.828 26.56C117.801 26.4933 117.775 26.4267 117.748 26.36C117.735 26.28 117.715 26.2067 117.688 26.14C117.648 26.0067 117.628 25.88 117.628 25.76V14.4C117.628 14.32 117.628 14.24 117.628 14.16C117.641 14.0667 117.655 13.9867 117.668 13.92C117.681 13.7733 117.728 13.6267 117.808 13.48C117.848 13.32 117.915 13.2067 118.008 13.14C118.088 13.06 118.208 12.9933 118.368 12.94C118.541 12.8733 118.788 12.8467 119.108 12.86C119.708 12.8733 120.301 12.88 120.888 12.88C121.475 12.88 122.061 12.8933 122.648 12.92C123.035 12.9467 123.441 12.9933 123.868 13.06C124.308 13.1133 124.715 13.2133 125.088 13.36C125.328 13.4533 125.548 13.5467 125.748 13.64C126.001 13.7867 126.201 13.9267 126.348 14.06C126.815 14.4867 127.168 15 127.408 15.6C127.648 16.2 127.768 16.8067 127.768 17.42C127.768 18.14 127.595 18.8 127.248 19.4C126.915 20 126.375 20.4467 125.628 20.74C125.601 20.7667 125.561 20.7867 125.508 20.8C125.468 20.8 125.435 20.8067 125.408 20.82L127.248 24.52L127.428 24.84C127.455 24.8933 127.488 24.9533 127.528 25.02C127.568 25.0867 127.601 25.1533 127.628 25.22C127.668 25.2867 127.701 25.36 127.728 25.44C127.768 25.52 127.808 25.5933 127.848 25.66C127.888 25.8467 127.921 26 127.948 26.12ZM122.948 19C123.188 19 123.415 18.96 123.628 18.88C123.855 18.7867 124.055 18.6667 124.228 18.52C124.415 18.3733 124.568 18.2067 124.688 18.02C124.808 17.82 124.875 17.6067 124.888 17.38C124.941 16.7133 124.768 16.22 124.368 15.9C123.968 15.5667 123.441 15.3867 122.788 15.36C122.401 15.3333 121.975 15.32 121.508 15.32C121.055 15.32 120.621 15.32 120.208 15.32C120.221 15.8667 120.221 16.4267 120.208 17C120.208 17.56 120.208 18.2267 120.208 19H122.948ZM145.377 23.64C145.55 24.0267 145.557 24.4067 145.397 24.78C145.237 25.14 144.984 25.4733 144.637 25.78C144.29 26.0867 143.89 26.3533 143.437 26.58C142.997 26.8067 142.577 26.9667 142.177 27.06C141.737 27.1533 141.27 27.1933 140.777 27.18C140.297 27.18 139.81 27.12 139.317 27C138.837 26.8933 138.364 26.7333 137.897 26.52C137.444 26.2933 137.024 26.02 136.637 25.7C136.17 25.3133 135.804 24.8533 135.537 24.32C135.284 23.7733 135.097 23.1933 134.977 22.58C134.857 21.9667 134.79 21.3533 134.777 20.74C134.777 20.1133 134.797 19.5267 134.837 18.98C134.877 18.4867 134.977 17.9733 135.137 17.44C135.297 16.9067 135.517 16.3867 135.797 15.88C136.09 15.36 136.437 14.88 136.837 14.44C137.25 14 137.73 13.6267 138.277 13.32C138.69 13.08 139.15 12.92 139.657 12.84C140.177 12.7467 140.697 12.7267 141.217 12.78C141.75 12.82 142.25 12.9333 142.717 13.12C143.197 13.2933 143.604 13.5333 143.937 13.84C144.15 14.0267 144.37 14.2867 144.597 14.62C144.837 14.9533 145.01 15.2933 145.117 15.64C145.224 15.9867 145.224 16.3133 145.117 16.62C145.024 16.9133 144.757 17.1133 144.317 17.22C144.13 17.2733 143.964 17.2867 143.817 17.26C143.67 17.22 143.537 17.16 143.417 17.08C143.297 16.9867 143.184 16.88 143.077 16.76C142.97 16.64 142.87 16.52 142.777 16.4C142.457 16.0133 142.084 15.7533 141.657 15.62C141.23 15.4733 140.804 15.44 140.377 15.52C139.964 15.5867 139.57 15.76 139.197 16.04C138.837 16.3067 138.557 16.6533 138.357 17.08C138.144 17.5333 137.97 18.0333 137.837 18.58C137.717 19.1133 137.65 19.66 137.637 20.22C137.624 20.7667 137.67 21.3 137.777 21.82C137.897 22.34 138.097 22.8 138.377 23.2C138.59 23.52 138.85 23.78 139.157 23.98C139.477 24.18 139.817 24.32 140.177 24.4C140.537 24.48 140.897 24.4933 141.257 24.44C141.63 24.3867 141.99 24.2667 142.337 24.08C142.444 24.0267 142.557 23.9533 142.677 23.86C142.81 23.7533 142.944 23.6467 143.077 23.54C143.21 23.4333 143.344 23.3333 143.477 23.24C143.624 23.1467 143.777 23.08 143.937 23.04C144.177 22.96 144.437 22.9667 144.717 23.06C145.01 23.1533 145.23 23.3467 145.377 23.64ZM159.46 25.64C159.474 25.72 159.48 25.8 159.48 25.88C159.494 25.9467 159.5 26.0267 159.5 26.12C159.5 26.28 159.454 26.4267 159.36 26.56C159.32 26.6267 159.267 26.6933 159.2 26.76C159.134 26.8133 159.054 26.86 158.96 26.9C158.627 27.0867 158.274 27.1533 157.9 27.1C157.714 27.0467 157.547 26.96 157.4 26.84C157.374 26.8133 157.354 26.8 157.34 26.8C157.327 26.7867 157.314 26.7667 157.3 26.74C157.287 26.7267 157.274 26.7133 157.26 26.7C157.247 26.6733 157.227 26.6533 157.2 26.64C157.134 26.5733 157.08 26.5133 157.04 26.46C157 26.3933 156.96 26.3267 156.92 26.26C156.894 26.1933 156.86 26.1333 156.82 26.08C156.794 26.0133 156.76 25.9467 156.72 25.88C156.694 25.8267 156.667 25.78 156.64 25.74C156.614 25.6867 156.594 25.6333 156.58 25.58C156.527 25.46 156.494 25.3533 156.48 25.26L156.06 24.28C155.14 24.28 154.22 24.2867 153.3 24.3C152.394 24.3 151.48 24.2933 150.56 24.28L150.14 25.26C150.114 25.3133 150.094 25.3667 150.08 25.42C150.08 25.4733 150.067 25.5267 150.04 25.58C150.014 25.6333 149.987 25.6867 149.96 25.74C149.947 25.78 149.927 25.8267 149.9 25.88C149.86 25.9467 149.82 26.0133 149.78 26.08C149.754 26.1333 149.72 26.1933 149.68 26.26C149.654 26.3267 149.62 26.3933 149.58 26.46C149.54 26.5133 149.487 26.5733 149.42 26.64C149.394 26.6533 149.374 26.6733 149.36 26.7C149.347 26.7133 149.334 26.7267 149.32 26.74C149.307 26.7667 149.294 26.7867 149.28 26.8C149.267 26.8 149.247 26.8133 149.22 26.84C149.074 26.96 148.907 27.0467 148.72 27.1C148.347 27.1533 147.994 27.0867 147.66 26.9C147.567 26.86 147.487 26.8133 147.42 26.76C147.354 26.6933 147.3 26.6267 147.26 26.56C147.167 26.4267 147.12 26.28 147.12 26.12C147.12 26.0267 147.12 25.9467 147.12 25.88C147.134 25.8 147.147 25.72 147.16 25.64C147.187 25.52 147.22 25.4 147.26 25.28C147.3 25.16 147.32 25.1 147.32 25.1L151.48 14.86L151.6 14.54C151.627 14.46 151.66 14.3867 151.7 14.32C151.74 14.2533 151.774 14.1733 151.8 14.08C151.867 13.9067 151.94 13.7533 152.02 13.62C152.06 13.54 152.107 13.4667 152.16 13.4C152.214 13.3333 152.267 13.2667 152.32 13.2C152.4 13.0933 152.514 13.0067 152.66 12.94C152.847 12.8733 153.06 12.84 153.3 12.84C153.554 12.84 153.774 12.8733 153.96 12.94C154.107 13.0067 154.22 13.0933 154.3 13.2C154.394 13.32 154.494 13.46 154.6 13.62C154.68 13.7533 154.754 13.9067 154.82 14.08C154.847 14.1733 154.88 14.2533 154.92 14.32C154.96 14.3867 154.994 14.46 155.02 14.54L155.14 14.86L159.3 25.1C159.3 25.1 159.32 25.16 159.36 25.28C159.4 25.4 159.434 25.52 159.46 25.64ZM154.72 20.74C154.547 20.3533 154.367 19.9533 154.18 19.54C154.007 19.1267 153.82 18.7067 153.62 18.28C153.567 18.16 153.514 18.04 153.46 17.92C153.407 17.7867 153.354 17.66 153.3 17.54C153.26 17.66 153.214 17.7867 153.16 17.92C153.107 18.04 153.054 18.16 153 18.28C152.8 18.7067 152.607 19.1267 152.42 19.54C152.247 19.9533 152.074 20.3533 151.9 20.74L151.54 21.62H155.08L154.72 20.74ZM173.285 25.56C173.271 25.72 173.251 25.8867 173.225 26.06C173.198 26.2333 173.151 26.3933 173.085 26.54C173.018 26.7 172.931 26.82 172.825 26.9C172.678 27.0333 172.505 27.1067 172.305 27.12C172.118 27.1867 171.938 27.2067 171.765 27.18C171.591 27.1533 171.431 27.1067 171.285 27.04C171.098 26.92 170.958 26.78 170.865 26.62C170.785 26.4467 170.725 26.2667 170.685 26.08C170.645 25.8933 170.625 25.7 170.625 25.5C170.625 25.3 170.625 25.1133 170.625 24.94V23.38L170.605 20.32C170.605 20.1067 170.605 19.94 170.605 19.82C170.605 19.7 170.605 19.5933 170.605 19.5C170.605 19.3933 170.598 19.28 170.585 19.16C170.585 19.0267 170.585 18.84 170.585 18.6C170.585 18.56 170.585 18.4933 170.585 18.4C170.598 18.2933 170.591 18.02 170.565 17.58C170.045 18.4467 169.611 19.1467 169.265 19.68C168.931 20.2 168.645 20.6067 168.405 20.9C168.178 21.18 167.978 21.3733 167.805 21.48C167.631 21.5733 167.451 21.6267 167.265 21.64C167.158 21.6533 167.051 21.6333 166.945 21.58C166.838 21.5267 166.731 21.46 166.625 21.38C166.531 21.3 166.438 21.22 166.345 21.14C166.265 21.0467 166.198 20.96 166.145 20.88C165.825 20.48 165.465 20 165.065 19.44C164.665 18.88 164.251 18.2 163.825 17.4C163.825 17.4133 163.818 17.6333 163.805 18.06C163.805 18.4867 163.805 19.02 163.805 19.66C163.805 20.2867 163.798 20.9667 163.785 21.7C163.785 22.42 163.778 23.0933 163.765 23.72C163.765 24.3467 163.758 24.8733 163.745 25.3C163.731 25.7133 163.718 25.92 163.705 25.92C163.705 26.1467 163.651 26.36 163.545 26.56C163.438 26.7467 163.291 26.9 163.105 27.02C162.931 27.14 162.725 27.2067 162.485 27.22C162.245 27.2333 161.985 27.1667 161.705 27.02C161.531 26.9133 161.398 26.76 161.305 26.56C161.225 26.36 161.171 26.1733 161.145 26C161.131 25.8133 161.118 25.6333 161.105 25.46C161.105 25.2867 161.105 25.1067 161.105 24.92L161.125 23.36L161.145 20.28V17.6C161.145 16.44 161.185 15.3 161.265 14.18C161.265 14.0333 161.278 13.9 161.305 13.78C161.345 13.6467 161.391 13.52 161.445 13.4C161.551 13.1867 161.691 13.0267 161.865 12.92C162.065 12.8 162.278 12.74 162.505 12.74C162.598 12.74 162.685 12.7467 162.765 12.76C162.858 12.76 162.945 12.7667 163.025 12.78C163.291 12.8333 163.518 12.9933 163.705 13.26C163.905 13.5133 164.091 13.7333 164.265 13.92C164.371 14.04 164.485 14.1867 164.605 14.36C164.725 14.5333 164.845 14.7133 164.965 14.9C165.085 15.0867 165.198 15.2667 165.305 15.44C165.411 15.6133 165.505 15.7667 165.585 15.9C165.931 16.46 166.238 16.9733 166.505 17.44C166.785 17.9067 167.045 18.3067 167.285 18.64C167.325 18.6 167.371 18.5467 167.425 18.48C167.478 18.4 167.531 18.32 167.585 18.24C167.651 18.1467 167.705 18.06 167.745 17.98C167.798 17.9 167.838 17.8333 167.865 17.78C167.998 17.5667 168.131 17.36 168.265 17.16C168.398 16.9467 168.538 16.7267 168.685 16.5C168.845 16.26 169.005 16 169.165 15.72C169.338 15.44 169.538 15.12 169.765 14.76C169.858 14.6 169.978 14.4067 170.125 14.18C170.271 13.9533 170.438 13.7333 170.625 13.52C170.811 13.3067 171.005 13.1267 171.205 12.98C171.418 12.82 171.631 12.74 171.845 12.74C171.951 12.74 172.045 12.7467 172.125 12.76C172.205 12.76 172.285 12.7667 172.365 12.78C172.525 12.7933 172.678 12.8667 172.825 13C172.931 13.1067 173.011 13.22 173.065 13.34C173.118 13.5133 173.151 13.66 173.165 13.78C173.178 13.8733 173.185 13.96 173.185 14.04C173.198 14.12 173.205 14.2 173.205 14.28C173.205 15.0267 173.211 15.7667 173.225 16.5C173.238 17.2333 173.245 17.9733 173.245 18.72C173.245 19.6267 173.245 20.56 173.245 21.52C173.258 22.48 173.265 23.4133 173.265 24.32C173.265 24.5067 173.271 24.7067 173.285 24.92C173.298 25.1333 173.298 25.3467 173.285 25.56ZM183.964 14.1C184.471 14.5667 184.844 15.1267 185.084 15.78C185.324 16.42 185.417 17.06 185.364 17.7C185.311 18.3133 185.117 18.88 184.784 19.4C184.451 19.9067 183.944 20.2933 183.264 20.56C182.731 20.7867 182.204 20.9467 181.684 21.04C181.164 21.1333 180.591 21.2067 179.964 21.26C179.684 21.2867 179.444 21.3067 179.244 21.32C179.057 21.32 178.837 21.3267 178.584 21.34C178.531 21.34 178.437 21.34 178.304 21.34C178.184 21.34 178.097 21.3467 178.044 21.36V25.5C178.004 25.7533 177.951 26.0133 177.884 26.28C177.831 26.5467 177.677 26.7533 177.424 26.9C177.277 26.98 177.097 27.0267 176.884 27.04C176.671 27.0533 176.477 27.0467 176.304 27.02C176.117 26.9933 175.957 26.9467 175.824 26.88C175.704 26.8 175.604 26.6667 175.524 26.48C175.471 26.36 175.417 26.2267 175.364 26.08C175.324 25.92 175.304 25.7267 175.304 25.5V14.44C175.304 14.3467 175.311 14.26 175.324 14.18C175.337 14.1 175.351 14.02 175.364 13.94C175.391 13.8733 175.411 13.8 175.424 13.72C175.437 13.64 175.457 13.5667 175.484 13.5C175.511 13.4333 175.537 13.3733 175.564 13.32C175.604 13.2667 175.651 13.22 175.704 13.18C175.771 13.1133 175.871 13.0533 176.004 13C176.151 12.9467 176.364 12.92 176.644 12.92H176.684C177.097 12.8933 177.557 12.8733 178.064 12.86C178.571 12.8333 178.991 12.84 179.324 12.88C179.511 12.9067 179.684 12.9267 179.844 12.94C180.004 12.94 180.157 12.9467 180.304 12.96C180.464 12.9733 180.624 12.9867 180.784 13C180.944 13.0133 181.104 13.0333 181.264 13.06C181.397 13.0867 181.517 13.1067 181.624 13.12C181.744 13.1333 181.864 13.1533 181.984 13.18C182.091 13.2067 182.204 13.2333 182.324 13.26C182.457 13.2867 182.577 13.3333 182.684 13.4C182.964 13.48 183.197 13.58 183.384 13.7C183.571 13.82 183.764 13.9533 183.964 14.1ZM182.764 17.4C182.777 17.08 182.711 16.8 182.564 16.56C182.431 16.32 182.237 16.12 181.984 15.96C181.731 15.8 181.444 15.6733 181.124 15.58C180.804 15.4867 180.484 15.42 180.164 15.38C180.084 15.38 179.971 15.38 179.824 15.38C179.691 15.3667 179.544 15.36 179.384 15.36C179.224 15.3467 179.071 15.34 178.924 15.34C178.791 15.3267 178.684 15.32 178.604 15.32C178.537 15.3067 178.457 15.3 178.364 15.3C178.271 15.3 178.164 15.3 178.044 15.3C178.057 15.7133 178.064 16.1133 178.064 16.5C178.064 16.8733 178.064 17.28 178.064 17.72C178.051 17.96 178.044 18.2 178.044 18.44C178.044 18.68 178.044 18.9133 178.044 19.14L179.284 19.12C179.604 19.12 179.957 19.1 180.344 19.06C180.731 19.02 181.097 18.94 181.444 18.82C181.791 18.7 182.084 18.5267 182.324 18.3C182.577 18.0733 182.724 17.7733 182.764 17.4Z" fill="#A63352"/>
<path d="M53.8097 40V39.5135L56.1854 36.843C56.4955 36.4927 56.7453 36.1932 56.9347 35.9446C57.1241 35.696 57.2614 35.4664 57.3466 35.2557C57.4342 35.045 57.478 34.826 57.478 34.5987C57.478 34.3217 57.4129 34.0803 57.2827 33.8743C57.1548 33.666 56.9785 33.5038 56.7536 33.3878C56.5286 33.2718 56.2753 33.2138 55.9936 33.2138C55.6953 33.2138 55.4337 33.2777 55.2088 33.4055C54.9863 33.5334 54.8134 33.7086 54.6903 33.9311C54.5672 34.1536 54.5057 34.4093 54.5057 34.6982H53.87C53.87 34.2957 53.9624 33.9394 54.147 33.6293C54.334 33.3168 54.5885 33.0717 54.9105 32.8942C55.2348 32.7166 55.6018 32.6278 56.0114 32.6278C56.4162 32.6278 56.776 32.7154 57.0909 32.8906C57.4058 33.0634 57.6532 33.299 57.8331 33.5973C58.013 33.8956 58.103 34.2294 58.103 34.5987C58.103 34.8662 58.0556 35.1255 57.9609 35.3764C57.8686 35.6274 57.7088 35.9067 57.4815 36.2145C57.2543 36.5223 56.9394 36.8987 56.5369 37.3438L54.733 39.3572V39.4034H58.3303V40H53.8097ZM62.1575 32.7273V40H61.4934V33.4233H61.4508L59.7463 34.5561V33.8672L61.465 32.7273H62.1575ZM66.4934 40.0994C66.0886 40.0994 65.7264 40.0178 65.4068 39.8544C65.0895 39.6887 64.8362 39.4614 64.6468 39.1726C64.4598 38.8838 64.3604 38.5535 64.3485 38.1818H64.9913C65.0126 38.5677 65.1641 38.8849 65.4458 39.1335C65.7276 39.3797 66.0768 39.5028 66.4934 39.5028C66.8178 39.5028 67.1066 39.4259 67.3599 39.272C67.6132 39.1158 67.8109 38.9027 67.9529 38.6328C68.0974 38.3606 68.1696 38.054 68.1696 37.7131C68.1672 37.358 68.0903 37.0455 67.9387 36.7756C67.7872 36.5033 67.5813 36.2902 67.3208 36.1364C67.0628 35.9825 66.7728 35.9055 66.4508 35.9055C66.207 35.9032 65.9679 35.9434 65.7335 36.0263C65.4991 36.1091 65.3038 36.2157 65.1475 36.3459L64.4835 36.2607L64.9203 32.7273H68.514V33.3239H65.4778L65.1866 35.7564H65.2221C65.3831 35.6214 65.5784 35.5114 65.8081 35.4261C66.0401 35.3409 66.2851 35.2983 66.5431 35.2983C66.9717 35.2983 67.3564 35.4013 67.6973 35.6072C68.0405 35.8132 68.3116 36.0973 68.5105 36.4595C68.7117 36.8194 68.8123 37.2337 68.8123 37.7024C68.8123 38.1617 68.7117 38.5724 68.5105 38.9347C68.3116 39.2945 68.037 39.5786 67.6866 39.7869C67.3386 39.9953 66.9409 40.0994 66.4934 40.0994ZM73.2921 40V32.7273H73.9277V35.5859H73.9846C74.0556 35.4226 74.1574 35.2545 74.29 35.0817C74.4249 34.9089 74.6013 34.7644 74.8191 34.6484C75.0392 34.5301 75.3162 34.4709 75.65 34.4709C76.0975 34.4709 76.4905 34.5893 76.829 34.826C77.1676 35.0604 77.4315 35.3894 77.6209 35.8132C77.8103 36.2346 77.905 36.7259 77.905 37.2869C77.905 37.8504 77.8103 38.344 77.6209 38.7678C77.4339 39.1915 77.1711 39.5218 76.8326 39.7585C76.4964 39.9953 76.1058 40.1136 75.6607 40.1136C75.3292 40.1136 75.0523 40.0545 74.8297 39.9361C74.6096 39.8177 74.432 39.6721 74.2971 39.4993C74.1621 39.3241 74.0579 39.1536 73.9846 38.9879H73.9064V40H73.2921ZM73.9171 37.2763C73.9171 37.7166 73.9822 38.1072 74.1124 38.4482C74.245 38.7867 74.4344 39.053 74.6806 39.2472C74.9292 39.4389 75.2298 39.5348 75.5826 39.5348C75.9448 39.5348 76.2514 39.4354 76.5023 39.2365C76.7533 39.0353 76.9438 38.7642 77.074 38.4233C77.2042 38.0824 77.2694 37.7 77.2694 37.2763C77.2694 36.8572 77.2042 36.4796 77.074 36.1435C76.9462 35.8073 76.7568 35.541 76.5059 35.3445C76.2549 35.1456 75.9471 35.0462 75.5826 35.0462C75.2275 35.0462 74.9256 35.142 74.677 35.3338C74.4308 35.5232 74.2426 35.786 74.1124 36.1222C73.9822 36.456 73.9171 36.8407 73.9171 37.2763ZM81.4135 40.1136C80.9424 40.1136 80.5257 39.9941 80.1635 39.755C79.8037 39.5159 79.522 39.1856 79.3184 38.7642C79.1148 38.3404 79.013 37.8516 79.013 37.2976C79.013 36.7389 79.1148 36.2476 79.3184 35.8239C79.522 35.3977 79.8037 35.0663 80.1635 34.8295C80.5257 34.5904 80.9424 34.4709 81.4135 34.4709C81.8846 34.4709 82.3001 34.5904 82.66 34.8295C83.0198 35.0687 83.3016 35.4001 83.5051 35.8239C83.7111 36.2476 83.8141 36.7389 83.8141 37.2976C83.8141 37.8516 83.7123 38.3404 83.5087 38.7642C83.3051 39.1856 83.0222 39.5159 82.66 39.755C82.3001 39.9941 81.8846 40.1136 81.4135 40.1136ZM81.4135 39.5348C81.7923 39.5348 82.1131 39.433 82.3759 39.2294C82.6387 39.0258 82.8375 38.7547 82.9725 38.4162C83.1098 38.0777 83.1784 37.7048 83.1784 37.2976C83.1784 36.8904 83.1098 36.5163 82.9725 36.1754C82.8375 35.8345 82.6387 35.5611 82.3759 35.3551C82.1131 35.1491 81.7923 35.0462 81.4135 35.0462C81.0371 35.0462 80.7163 35.1491 80.4512 35.3551C80.1884 35.5611 79.9883 35.8345 79.851 36.1754C79.7161 36.5163 79.6486 36.8904 79.6486 37.2976C79.6486 37.7048 79.7161 38.0777 79.851 38.4162C79.9883 38.7547 80.1884 39.0258 80.4512 39.2294C80.714 39.433 81.0347 39.5348 81.4135 39.5348ZM88.6676 37.9155V34.5455H89.2997V40H88.6676V39.0945H88.6179C88.4901 39.3738 88.2876 39.607 88.0107 39.794C87.7337 39.9787 87.3951 40.071 86.995 40.071C86.647 40.071 86.3381 39.9953 86.0682 39.8438C85.7983 39.6899 85.5864 39.465 85.4325 39.169C85.2786 38.8731 85.2017 38.5097 85.2017 38.0788V34.5455H85.8338V38.0398C85.8338 38.4659 85.9593 38.8092 86.2102 39.0696C86.4612 39.3277 86.7831 39.4567 87.1761 39.4567C87.4223 39.4567 87.6591 39.3975 87.8864 39.2791C88.1136 39.1607 88.3007 38.9879 88.4474 38.7607C88.5942 38.531 88.6676 38.2493 88.6676 37.9155ZM91.6053 32.7273V40H90.9732V32.7273H91.6053ZM98.0542 40.1136C97.6067 40.1136 97.2149 39.9953 96.8787 39.7585C96.5426 39.5218 96.2798 39.1915 96.0904 38.7678C95.9033 38.344 95.8098 37.8504 95.8098 37.2869C95.8098 36.7259 95.9033 36.2346 96.0904 35.8132C96.2798 35.3894 96.5437 35.0604 96.8823 34.826C97.2208 34.5893 97.615 34.4709 98.0648 34.4709C98.3962 34.4709 98.6721 34.5301 98.8922 34.6484C99.1124 34.7644 99.2888 34.9089 99.4213 35.0817C99.5539 35.2545 99.6569 35.4226 99.7303 35.5859H99.7871V32.7273H100.423V40H99.8049V38.9879H99.7303C99.6569 39.1536 99.5527 39.3241 99.4178 39.4993C99.2828 39.6721 99.1041 39.8177 98.8816 39.9361C98.6614 40.0545 98.3856 40.1136 98.0542 40.1136ZM98.1287 39.5348C98.4815 39.5348 98.7821 39.4389 99.0307 39.2472C99.2793 39.053 99.4687 38.7867 99.5989 38.4482C99.7315 38.1072 99.7978 37.7166 99.7978 37.2763C99.7978 36.8407 99.7327 36.456 99.6025 36.1222C99.4722 35.786 99.2828 35.5232 99.0343 35.3338C98.7857 35.142 98.4838 35.0462 98.1287 35.0462C97.7641 35.0462 97.4564 35.1456 97.2054 35.3445C96.9569 35.541 96.7675 35.8073 96.6373 36.1435C96.5094 36.4796 96.4455 36.8572 96.4455 37.2763C96.4455 37.7 96.5106 38.0824 96.6408 38.4233C96.771 38.7642 96.9604 39.0353 97.209 39.2365C97.4599 39.4354 97.7665 39.5348 98.1287 39.5348ZM102.763 32.7273V35.1527H102.166V32.7273H102.763ZM103.732 40H103.036L105.682 32.7273H106.392L109.038 40H108.342L106.062 33.5902H106.012L103.732 40ZM104.233 37.2124H107.841V37.8089H104.233V37.2124ZM110.153 40V34.5455H110.767V35.3835H110.824C110.933 35.1018 111.114 34.8804 111.367 34.7195C111.623 34.5561 111.93 34.4744 112.287 34.4744C112.664 34.4744 112.972 34.5632 113.214 34.7408C113.458 34.916 113.64 35.1574 113.761 35.4652H113.807C113.93 35.1622 114.13 34.9219 114.407 34.7443C114.686 34.5644 115.025 34.4744 115.423 34.4744C115.929 34.4744 116.329 34.6342 116.623 34.9538C116.917 35.2711 117.063 35.7351 117.063 36.3459V40H116.431V36.3459C116.431 35.915 116.321 35.5919 116.101 35.3764C115.881 35.161 115.591 35.0533 115.231 35.0533C114.814 35.0533 114.494 35.1811 114.269 35.4368C114.044 35.6925 113.931 36.0168 113.931 36.4098V40H113.285V36.2891C113.285 35.9197 113.182 35.6214 112.976 35.3942C112.77 35.1669 112.48 35.0533 112.106 35.0533C111.855 35.0533 111.629 35.1148 111.428 35.2379C111.229 35.361 111.071 35.5327 110.955 35.7528C110.842 35.9706 110.785 36.2216 110.785 36.5057V40H110.153ZM122.402 35.7422L121.823 35.9055C121.766 35.7422 121.685 35.5942 121.581 35.4616C121.477 35.3291 121.341 35.2237 121.173 35.1456C121.007 35.0675 120.801 35.0284 120.555 35.0284C120.186 35.0284 119.883 35.116 119.646 35.2912C119.409 35.4664 119.291 35.6925 119.291 35.9695C119.291 36.2038 119.371 36.3944 119.532 36.5412C119.696 36.6856 119.947 36.8004 120.285 36.8857L121.109 37.0881C121.566 37.1993 121.908 37.3757 122.135 37.6172C122.365 37.8587 122.48 38.1617 122.48 38.5263C122.48 38.834 122.395 39.1075 122.224 39.3466C122.054 39.5857 121.816 39.7739 121.51 39.9112C121.207 40.0462 120.856 40.1136 120.456 40.1136C119.923 40.1136 119.484 39.9941 119.138 39.755C118.792 39.5135 118.571 39.1655 118.474 38.7109L119.081 38.5618C119.159 38.8861 119.312 39.1312 119.539 39.2969C119.769 39.4626 120.071 39.5455 120.445 39.5455C120.864 39.5455 121.199 39.4519 121.45 39.2649C121.701 39.0755 121.826 38.8388 121.826 38.5547C121.826 38.3345 121.753 38.1499 121.606 38.0007C121.459 37.8492 121.237 37.7379 120.939 37.6669L120.047 37.4538C119.574 37.3402 119.223 37.1603 118.996 36.9141C118.769 36.6679 118.655 36.3625 118.655 35.9979C118.655 35.6972 118.737 35.4332 118.9 35.206C119.064 34.9763 119.288 34.7964 119.575 34.6662C119.861 34.536 120.188 34.4709 120.555 34.4709C121.055 34.4709 121.453 34.5845 121.752 34.8118C122.052 35.0367 122.269 35.3468 122.402 35.7422ZM126.012 34.5455V35.0959H123.409V34.5455H126.012ZM124.222 33.2386H124.858V38.576C124.858 38.8033 124.897 38.982 124.975 39.1122C125.053 39.2401 125.155 39.3312 125.281 39.3857C125.406 39.4377 125.54 39.4638 125.682 39.4638C125.765 39.4638 125.836 39.459 125.895 39.4496C125.954 39.4377 126.006 39.4259 126.051 39.4141L126.186 39.9858C126.125 40.0095 126.049 40.0308 125.959 40.0497C125.869 40.071 125.758 40.0817 125.625 40.0817C125.393 40.0817 125.169 40.0308 124.954 39.929C124.741 39.8272 124.566 39.6757 124.428 39.4744C124.291 39.2732 124.222 39.0234 124.222 38.7251V33.2386ZM129.594 40.1136C129.085 40.1136 128.645 39.9953 128.273 39.7585C127.902 39.5194 127.614 39.1892 127.411 38.7678C127.209 38.344 127.109 37.8563 127.109 37.3047C127.109 36.7554 127.209 36.2678 127.411 35.8416C127.614 35.4131 127.895 35.0781 128.252 34.8366C128.612 34.5928 129.027 34.4709 129.499 34.4709C129.795 34.4709 130.08 34.5253 130.354 34.6342C130.629 34.7408 130.875 34.9053 131.093 35.1278C131.313 35.348 131.487 35.6262 131.615 35.9624C131.743 36.2962 131.807 36.6915 131.807 37.1484V37.4609H127.545V36.9034H131.161C131.161 36.553 131.089 36.2382 130.947 35.9588C130.808 35.6771 130.612 35.4545 130.362 35.2912C130.113 35.1278 129.825 35.0462 129.499 35.0462C129.153 35.0462 128.849 35.1385 128.586 35.3232C128.323 35.5078 128.117 35.7517 127.968 36.0547C127.821 36.3577 127.747 36.6892 127.744 37.049V37.3828C127.744 37.8161 127.819 38.1948 127.968 38.5192C128.12 38.8411 128.334 39.0909 128.611 39.2685C128.888 39.446 129.216 39.5348 129.594 39.5348C129.853 39.5348 130.079 39.4946 130.273 39.4141C130.469 39.3336 130.634 39.2259 130.766 39.0909C130.901 38.9536 131.003 38.8033 131.072 38.6399L131.672 38.8352C131.589 39.0649 131.453 39.2768 131.263 39.4709C131.076 39.665 130.842 39.8213 130.56 39.9396C130.281 40.0556 129.959 40.1136 129.594 40.1136ZM133.2 40V34.5455H133.814V35.3835H133.86C133.969 35.1089 134.159 34.8875 134.428 34.7195C134.701 34.549 135.008 34.4638 135.352 34.4638C135.404 34.4638 135.462 34.465 135.526 34.4673C135.59 34.4697 135.643 34.4721 135.686 34.4744V35.1172C135.657 35.1125 135.607 35.1054 135.536 35.0959C135.465 35.0864 135.388 35.0817 135.306 35.0817C135.021 35.0817 134.768 35.142 134.546 35.2628C134.325 35.3812 134.151 35.5457 134.024 35.7564C133.896 35.9671 133.832 36.2074 133.832 36.4773V40H133.2ZM138.562 40.1136C138.115 40.1136 137.723 39.9953 137.387 39.7585C137.05 39.5218 136.788 39.1915 136.598 38.7678C136.411 38.344 136.318 37.8504 136.318 37.2869C136.318 36.7259 136.411 36.2346 136.598 35.8132C136.788 35.3894 137.052 35.0604 137.39 34.826C137.729 34.5893 138.123 34.4709 138.573 34.4709C138.904 34.4709 139.18 34.5301 139.4 34.6484C139.62 34.7644 139.797 34.9089 139.929 35.0817C140.062 35.2545 140.165 35.4226 140.238 35.5859H140.295V32.7273H140.931V40H140.313V38.9879H140.238C140.165 39.1536 140.061 39.3241 139.926 39.4993C139.791 39.6721 139.612 39.8177 139.389 39.9361C139.169 40.0545 138.893 40.1136 138.562 40.1136ZM138.637 39.5348C138.989 39.5348 139.29 39.4389 139.539 39.2472C139.787 39.053 139.977 38.7867 140.107 38.4482C140.239 38.1072 140.306 37.7166 140.306 37.2763C140.306 36.8407 140.24 36.456 140.11 36.1222C139.98 35.786 139.791 35.5232 139.542 35.3338C139.294 35.142 138.992 35.0462 138.637 35.0462C138.272 35.0462 137.964 35.1456 137.713 35.3445C137.465 35.541 137.275 35.8073 137.145 36.1435C137.017 36.4796 136.953 36.8572 136.953 37.2763C136.953 37.7 137.018 38.0824 137.149 38.4233C137.279 38.7642 137.468 39.0353 137.717 39.2365C137.968 39.4354 138.274 39.5348 138.637 39.5348ZM144.254 40.1243C143.925 40.1243 143.625 40.0604 143.352 39.9325C143.08 39.8023 142.864 39.6153 142.703 39.3714C142.542 39.1252 142.461 38.8269 142.461 38.4766C142.461 38.2067 142.512 37.9794 142.614 37.7947C142.716 37.6101 142.86 37.4586 143.047 37.3402C143.234 37.2218 143.455 37.1283 143.711 37.0597C143.967 36.991 144.249 36.9377 144.556 36.8999C144.862 36.862 145.12 36.8288 145.33 36.8004C145.544 36.772 145.706 36.727 145.817 36.6655C145.928 36.6039 145.984 36.5045 145.984 36.3672V36.2393C145.984 35.8677 145.873 35.5753 145.65 35.3622C145.43 35.1468 145.113 35.0391 144.698 35.0391C144.305 35.0391 143.985 35.1255 143.736 35.2983C143.49 35.4711 143.317 35.6747 143.218 35.9091L142.617 35.6925C142.74 35.3942 142.911 35.1562 143.129 34.9787C143.347 34.7988 143.59 34.6697 143.86 34.5916C144.13 34.5111 144.404 34.4709 144.681 34.4709C144.889 34.4709 145.106 34.4981 145.33 34.5526C145.558 34.607 145.768 34.7017 145.963 34.8366C146.157 34.9692 146.314 35.1551 146.435 35.3942C146.556 35.6309 146.616 35.9316 146.616 36.2962V40H145.984V39.1371H145.945C145.869 39.2981 145.757 39.4543 145.607 39.6058C145.458 39.7573 145.271 39.8816 145.046 39.9787C144.821 40.0758 144.557 40.1243 144.254 40.1243ZM144.34 39.5455C144.676 39.5455 144.967 39.4709 145.213 39.3217C145.459 39.1726 145.649 38.9749 145.781 38.7287C145.916 38.4801 145.984 38.2067 145.984 37.9084V37.12C145.936 37.165 145.857 37.2053 145.746 37.2408C145.637 37.2763 145.51 37.3082 145.366 37.3366C145.224 37.3627 145.082 37.3852 144.94 37.4041C144.798 37.4231 144.67 37.4396 144.556 37.4538C144.249 37.4917 143.986 37.5509 143.768 37.6314C143.55 37.7119 143.383 37.8232 143.267 37.9652C143.151 38.1049 143.093 38.2848 143.093 38.505C143.093 38.8364 143.212 39.0933 143.448 39.2756C143.685 39.4555 143.982 39.5455 144.34 39.5455ZM148.297 40V34.5455H148.912V35.3835H148.969C149.077 35.1018 149.259 34.8804 149.512 34.7195C149.768 34.5561 150.074 34.4744 150.432 34.4744C150.808 34.4744 151.117 34.5632 151.358 34.7408C151.602 34.916 151.785 35.1574 151.905 35.4652H151.952C152.075 35.1622 152.275 34.9219 152.552 34.7443C152.831 34.5644 153.17 34.4744 153.567 34.4744C154.074 34.4744 154.474 34.6342 154.768 34.9538C155.061 35.2711 155.208 35.7351 155.208 36.3459V40H154.576V36.3459C154.576 35.915 154.466 35.5919 154.246 35.3764C154.025 35.161 153.735 35.0533 153.376 35.0533C152.959 35.0533 152.638 35.1811 152.413 35.4368C152.188 35.6925 152.076 36.0168 152.076 36.4098V40H151.43V36.2891C151.43 35.9197 151.327 35.6214 151.121 35.3942C150.915 35.1669 150.625 35.0533 150.251 35.0533C150 35.0533 149.773 35.1148 149.572 35.2379C149.373 35.361 149.216 35.5327 149.1 35.7528C148.986 35.9706 148.93 36.2216 148.93 36.5057V40H148.297Z" fill="black"/>
</svg>
