<svg width="182" height="48" viewBox="0 0 182 48" fill="none" xmlns="http://www.w3.org/2000/svg">
<path d="M24 32C25.6 32 27.025 31.525 28.275 30.575C29.525 29.625 30.4333 28.4 31 26.9H17C17.5667 28.4 18.475 29.625 19.725 30.575C20.975 31.525 22.4 32 24 32ZM19 24C19.8333 24 20.5417 23.7083 21.125 23.125C21.7083 22.5417 22 21.8333 22 21C22 20.1667 21.7083 19.4583 21.125 18.875C20.5417 18.2917 19.8333 18 19 18C18.1667 18 17.4583 18.2917 16.875 18.875C16.2917 19.4583 16 20.1667 16 21C16 21.8333 16.2917 22.5417 16.875 23.125C17.4583 23.7083 18.1667 24 19 24ZM29 24C29.8333 24 30.5417 23.7083 31.125 23.125C31.7083 22.5417 32 21.8333 32 21C32 20.1667 31.7083 19.4583 31.125 18.875C30.5417 18.2917 29.8333 18 29 18C28.1667 18 27.4583 18.2917 26.875 18.875C26.2917 19.4583 26 20.1667 26 21C26 21.8333 26.2917 22.5417 26.875 23.125C27.4583 23.7083 28.1667 24 29 24ZM15.25 12.8L20.85 5.55C21.25 5.01667 21.725 4.625 22.275 4.375C22.825 4.125 23.4 4 24 4C24.6 4 25.175 4.125 25.725 4.375C26.275 4.625 26.75 5.01667 27.15 5.55L32.75 12.8L41.25 15.65C42.1167 15.9167 42.8 16.4083 43.3 17.125C43.8 17.8417 44.05 18.6333 44.05 19.5C44.05 19.9 43.9917 20.3 43.875 20.7C43.7583 21.1 43.5667 21.4833 43.3 21.85L37.8 29.65L38 37.85C38.0333 39.0167 37.65 40 36.85 40.8C36.05 41.6 35.1167 42 34.05 42C33.9833 42 33.6167 41.95 32.95 41.85L24 39.35L15.05 41.85C14.8833 41.9167 14.7 41.9583 14.5 41.975C14.3 41.9917 14.1167 42 13.95 42C12.8833 42 11.95 41.6 11.15 40.8C10.35 40 9.96667 39.0167 10 37.85L10.2 29.6L4.75 21.85C4.48333 21.4833 4.29167 21.1 4.175 20.7C4.05833 20.3 4 19.9 4 19.5C4 18.6667 4.24167 17.8917 4.725 17.175C5.20833 16.4583 5.88333 15.95 6.75 15.65L15.25 12.8Z" fill="#F2BF5E"/>
<path d="M59.16 21.18C59.2267 21.3667 59.2733 21.58 59.3 21.82C59.34 22.0467 59.36 22.28 59.36 22.52C59.36 22.76 59.34 23 59.3 23.24C59.2733 23.4667 59.2333 23.6667 59.18 23.84C58.9667 24.5867 58.54 25.2133 57.9 25.72C57.26 26.2133 56.5267 26.5733 55.7 26.8C54.8867 27.0267 54.04 27.1067 53.16 27.04C52.2933 26.9733 51.52 26.7533 50.84 26.38C50.4133 26.14 50.0467 25.8467 49.74 25.5C49.4333 25.1533 49.1733 24.7667 48.96 24.34C48.88 24.1933 48.8267 24.0267 48.8 23.84C48.7867 23.64 48.8067 23.4533 48.86 23.28C48.9133 23.0933 49 22.9333 49.12 22.8C49.24 22.6533 49.4067 22.5533 49.62 22.5C49.7533 22.4733 49.9 22.46 50.06 22.46C50.2333 22.46 50.4 22.4867 50.56 22.54C50.72 22.58 50.8667 22.6533 51 22.76C51.1333 22.8533 51.24 22.9867 51.32 23.16C51.4667 23.44 51.6733 23.7 51.94 23.94C52.22 24.1667 52.5133 24.3533 52.82 24.5C53.26 24.6467 53.7 24.7067 54.14 24.68C54.5933 24.6533 55 24.5533 55.36 24.38C55.7333 24.2067 56.0333 23.9733 56.26 23.68C56.4867 23.3733 56.6 23.0267 56.6 22.64C56.6 22.32 56.5533 22.06 56.46 21.86C56.3667 21.6467 56.2333 21.4733 56.06 21.34C55.9 21.1933 55.7 21.0733 55.46 20.98C55.2333 20.8867 54.98 20.8067 54.7 20.74C54.38 20.6733 54.0533 20.6267 53.72 20.6C53.4 20.5733 53.0733 20.54 52.74 20.5C52.4067 20.46 52.08 20.4067 51.76 20.34C51.44 20.2733 51.1267 20.1733 50.82 20.04C50.2067 19.7867 49.74 19.4 49.42 18.88C49.1 18.36 48.9067 17.8 48.84 17.2C48.7867 16.6 48.86 16.0067 49.06 15.42C49.26 14.82 49.58 14.3067 50.02 13.88C50.4467 13.4933 50.9533 13.22 51.54 13.06C52.14 12.8867 52.8 12.7867 53.52 12.76C53.92 12.7467 54.32 12.76 54.72 12.8C55.1333 12.84 55.5267 12.9067 55.9 13C56.2867 13.0933 56.64 13.2133 56.96 13.36C57.2933 13.5067 57.58 13.68 57.82 13.88C57.9933 14.0133 58.1667 14.1933 58.34 14.42C58.5133 14.6333 58.6467 14.8667 58.74 15.12C58.8333 15.36 58.86 15.5933 58.82 15.82C58.7933 16.0467 58.6533 16.24 58.4 16.4C58.1867 16.5333 57.98 16.5933 57.78 16.58C57.5933 16.5533 57.4133 16.4933 57.24 16.4C57.0667 16.2933 56.9 16.1733 56.74 16.04C56.58 15.9067 56.4333 15.7867 56.3 15.68C55.94 15.4133 55.4933 15.2333 54.96 15.14C54.4267 15.0467 53.9267 15.0267 53.46 15.08C53.1667 15.12 52.8933 15.1867 52.64 15.28C52.3867 15.3733 52.1667 15.5 51.98 15.66C51.8067 15.82 51.6667 16.02 51.56 16.26C51.4667 16.4867 51.4333 16.7467 51.46 17.04C51.4733 17.2533 51.5333 17.4333 51.64 17.58C51.76 17.7267 51.9 17.8467 52.06 17.94C52.2333 18.0333 52.42 18.1067 52.62 18.16C52.82 18.2133 53.02 18.2533 53.22 18.28C53.82 18.36 54.42 18.42 55.02 18.46C55.62 18.5 56.2067 18.6333 56.78 18.86C57.3667 19.0867 57.8667 19.3933 58.28 19.78C58.6933 20.1667 58.9867 20.6333 59.16 21.18ZM71.888 13.94C71.968 14.58 72.0146 15.3267 72.028 16.18C72.0413 17.02 72.028 17.8733 71.988 18.74C71.9613 19.5933 71.9013 20.4067 71.808 21.18C71.7146 21.94 71.6013 22.5533 71.468 23.02C71.3746 23.3 71.2613 23.5933 71.128 23.9C71.008 24.1933 70.8746 24.46 70.728 24.7C70.5146 25.06 70.2546 25.38 69.948 25.66C69.6413 25.9267 69.3013 26.16 68.928 26.36C68.568 26.5467 68.1813 26.6933 67.768 26.8C67.368 26.9067 66.968 26.9667 66.568 26.98C65.8613 27.0067 65.188 26.9067 64.548 26.68C63.9213 26.44 63.3413 26.0667 62.808 25.56C62.408 25.1733 62.088 24.76 61.848 24.32C61.608 23.88 61.4213 23.42 61.288 22.94C61.1546 22.4467 61.068 21.94 61.028 21.42C61.0013 20.9 60.988 20.3667 60.988 19.82C60.988 19.5667 60.9813 19.2533 60.968 18.88C60.968 18.4933 60.968 18.1 60.968 17.7C60.968 17.2867 60.968 16.8867 60.968 16.5C60.968 16.1133 60.9746 15.7867 60.988 15.52C60.988 15.3467 60.988 15.16 60.988 14.96C60.988 14.7467 60.9946 14.54 61.008 14.34C61.0346 14.1267 61.0746 13.9267 61.128 13.74C61.1813 13.54 61.2613 13.36 61.368 13.2C61.488 13.0267 61.6546 12.9 61.868 12.82C62.0813 12.74 62.3013 12.7 62.528 12.7C62.768 12.7 62.9946 12.7467 63.208 12.84C63.4213 12.9333 63.5946 13.0667 63.728 13.24C63.7946 13.3467 63.8413 13.4533 63.868 13.56C63.8946 13.6667 63.9146 13.7867 63.928 13.92C63.9546 14.36 63.968 14.86 63.968 15.42C63.9813 15.98 63.9813 16.5267 63.968 17.06C63.968 17.58 63.9613 18.06 63.948 18.5C63.9346 18.94 63.928 19.2667 63.928 19.48C63.928 20.28 63.968 21.0067 64.048 21.66C64.128 22.3 64.3146 22.8333 64.608 23.26C64.8746 23.6467 65.188 23.8933 65.548 24C65.908 24.1067 66.268 24.14 66.628 24.1C66.9613 24.06 67.2946 23.94 67.628 23.74C67.9746 23.5267 68.248 23.22 68.448 22.82C68.528 22.6733 68.5946 22.5067 68.648 22.32C68.7013 22.1333 68.7413 21.96 68.768 21.8C68.8213 21.2933 68.868 20.7067 68.908 20.04C68.948 19.36 68.9813 18.6667 69.008 17.96C69.0346 17.2533 69.048 16.56 69.048 15.88C69.048 15.2 69.0413 14.5867 69.028 14.04C69.0546 13.8 69.128 13.58 69.248 13.38C69.3546 13.2067 69.508 13.0533 69.708 12.92C69.908 12.7867 70.1813 12.72 70.528 12.72C70.808 12.7333 71.0346 12.8067 71.208 12.94C71.3813 13.06 71.5213 13.1933 71.628 13.34C71.748 13.5133 71.8346 13.7133 71.888 13.94ZM85.8238 25.56C85.8104 25.72 85.7904 25.8867 85.7638 26.06C85.7371 26.2333 85.6904 26.3933 85.6238 26.54C85.5571 26.7 85.4704 26.82 85.3638 26.9C85.2171 27.0333 85.0438 27.1067 84.8438 27.12C84.6571 27.1867 84.4771 27.2067 84.3038 27.18C84.1304 27.1533 83.9704 27.1067 83.8238 27.04C83.6371 26.92 83.4971 26.78 83.4037 26.62C83.3238 26.4467 83.2638 26.2667 83.2238 26.08C83.1838 25.8933 83.1638 25.7 83.1638 25.5C83.1638 25.3 83.1638 25.1133 83.1638 24.94V23.38L83.1438 20.32C83.1438 20.1067 83.1438 19.94 83.1438 19.82C83.1438 19.7 83.1438 19.5933 83.1438 19.5C83.1438 19.3933 83.1371 19.28 83.1237 19.16C83.1237 19.0267 83.1237 18.84 83.1237 18.6C83.1237 18.56 83.1237 18.4933 83.1237 18.4C83.1371 18.2933 83.1304 18.02 83.1038 17.58C82.5838 18.4467 82.1504 19.1467 81.8038 19.68C81.4704 20.2 81.1838 20.6067 80.9438 20.9C80.7171 21.18 80.5171 21.3733 80.3438 21.48C80.1704 21.5733 79.9904 21.6267 79.8038 21.64C79.6971 21.6533 79.5904 21.6333 79.4838 21.58C79.3771 21.5267 79.2704 21.46 79.1638 21.38C79.0704 21.3 78.9771 21.22 78.8838 21.14C78.8038 21.0467 78.7371 20.96 78.6838 20.88C78.3638 20.48 78.0038 20 77.6038 19.44C77.2038 18.88 76.7904 18.2 76.3638 17.4C76.3638 17.4133 76.3571 17.6333 76.3438 18.06C76.3438 18.4867 76.3438 19.02 76.3438 19.66C76.3438 20.2867 76.3371 20.9667 76.3238 21.7C76.3238 22.42 76.3171 23.0933 76.3038 23.72C76.3038 24.3467 76.2971 24.8733 76.2838 25.3C76.2704 25.7133 76.2571 25.92 76.2438 25.92C76.2438 26.1467 76.1904 26.36 76.0838 26.56C75.9771 26.7467 75.8304 26.9 75.6438 27.02C75.4704 27.14 75.2638 27.2067 75.0238 27.22C74.7838 27.2333 74.5238 27.1667 74.2438 27.02C74.0704 26.9133 73.9371 26.76 73.8438 26.56C73.7638 26.36 73.7104 26.1733 73.6838 26C73.6704 25.8133 73.6571 25.6333 73.6438 25.46C73.6438 25.2867 73.6438 25.1067 73.6438 24.92L73.6638 23.36L73.6838 20.28V17.6C73.6838 16.44 73.7238 15.3 73.8038 14.18C73.8038 14.0333 73.8171 13.9 73.8438 13.78C73.8838 13.6467 73.9304 13.52 73.9838 13.4C74.0904 13.1867 74.2304 13.0267 74.4038 12.92C74.6038 12.8 74.8171 12.74 75.0438 12.74C75.1371 12.74 75.2238 12.7467 75.3038 12.76C75.3971 12.76 75.4838 12.7667 75.5638 12.78C75.8304 12.8333 76.0571 12.9933 76.2438 13.26C76.4438 13.5133 76.6304 13.7333 76.8038 13.92C76.9104 14.04 77.0238 14.1867 77.1438 14.36C77.2638 14.5333 77.3838 14.7133 77.5038 14.9C77.6238 15.0867 77.7371 15.2667 77.8438 15.44C77.9504 15.6133 78.0438 15.7667 78.1237 15.9C78.4704 16.46 78.7771 16.9733 79.0438 17.44C79.3238 17.9067 79.5838 18.3067 79.8238 18.64C79.8638 18.6 79.9104 18.5467 79.9638 18.48C80.0171 18.4 80.0704 18.32 80.1238 18.24C80.1904 18.1467 80.2438 18.06 80.2838 17.98C80.3371 17.9 80.3771 17.8333 80.4038 17.78C80.5371 17.5667 80.6704 17.36 80.8038 17.16C80.9371 16.9467 81.0771 16.7267 81.2238 16.5C81.3838 16.26 81.5438 16 81.7038 15.72C81.8771 15.44 82.0771 15.12 82.3038 14.76C82.3971 14.6 82.5171 14.4067 82.6638 14.18C82.8104 13.9533 82.9771 13.7333 83.1638 13.52C83.3504 13.3067 83.5438 13.1267 83.7438 12.98C83.9571 12.82 84.1704 12.74 84.3838 12.74C84.4904 12.74 84.5838 12.7467 84.6638 12.76C84.7438 12.76 84.8238 12.7667 84.9038 12.78C85.0638 12.7933 85.2171 12.8667 85.3638 13C85.4704 13.1067 85.5504 13.22 85.6038 13.34C85.6571 13.5133 85.6904 13.66 85.7038 13.78C85.7171 13.8733 85.7238 13.96 85.7238 14.04C85.7371 14.12 85.7438 14.2 85.7438 14.28C85.7438 15.0267 85.7504 15.7667 85.7638 16.5C85.7771 17.2333 85.7838 17.9733 85.7838 18.72C85.7838 19.6267 85.7838 20.56 85.7838 21.52C85.7971 22.48 85.8038 23.4133 85.8038 24.32C85.8038 24.5067 85.8104 24.7067 85.8238 24.92C85.8371 25.1333 85.8371 25.3467 85.8238 25.56ZM100.023 25.56C100.01 25.72 99.9896 25.8867 99.963 26.06C99.9363 26.2333 99.8896 26.3933 99.823 26.54C99.7563 26.7 99.6696 26.82 99.563 26.9C99.4163 27.0333 99.243 27.1067 99.043 27.12C98.8563 27.1867 98.6763 27.2067 98.503 27.18C98.3296 27.1533 98.1696 27.1067 98.023 27.04C97.8363 26.92 97.6963 26.78 97.603 26.62C97.523 26.4467 97.463 26.2667 97.423 26.08C97.383 25.8933 97.363 25.7 97.363 25.5C97.363 25.3 97.363 25.1133 97.363 24.94V23.38L97.343 20.32C97.343 20.1067 97.343 19.94 97.343 19.82C97.343 19.7 97.343 19.5933 97.343 19.5C97.343 19.3933 97.3363 19.28 97.323 19.16C97.323 19.0267 97.323 18.84 97.323 18.6C97.323 18.56 97.323 18.4933 97.323 18.4C97.3363 18.2933 97.3296 18.02 97.303 17.58C96.783 18.4467 96.3496 19.1467 96.003 19.68C95.6696 20.2 95.383 20.6067 95.143 20.9C94.9163 21.18 94.7163 21.3733 94.543 21.48C94.3696 21.5733 94.1896 21.6267 94.003 21.64C93.8963 21.6533 93.7896 21.6333 93.683 21.58C93.5763 21.5267 93.4696 21.46 93.363 21.38C93.2696 21.3 93.1763 21.22 93.083 21.14C93.003 21.0467 92.9363 20.96 92.883 20.88C92.563 20.48 92.203 20 91.803 19.44C91.403 18.88 90.9896 18.2 90.563 17.4C90.563 17.4133 90.5563 17.6333 90.543 18.06C90.543 18.4867 90.543 19.02 90.543 19.66C90.543 20.2867 90.5363 20.9667 90.523 21.7C90.523 22.42 90.5163 23.0933 90.503 23.72C90.503 24.3467 90.4963 24.8733 90.483 25.3C90.4696 25.7133 90.4563 25.92 90.443 25.92C90.443 26.1467 90.3896 26.36 90.283 26.56C90.1763 26.7467 90.0296 26.9 89.843 27.02C89.6696 27.14 89.463 27.2067 89.223 27.22C88.983 27.2333 88.723 27.1667 88.443 27.02C88.2696 26.9133 88.1363 26.76 88.043 26.56C87.963 26.36 87.9096 26.1733 87.883 26C87.8696 25.8133 87.8563 25.6333 87.843 25.46C87.843 25.2867 87.843 25.1067 87.843 24.92L87.863 23.36L87.883 20.28V17.6C87.883 16.44 87.923 15.3 88.003 14.18C88.003 14.0333 88.0163 13.9 88.043 13.78C88.083 13.6467 88.1296 13.52 88.183 13.4C88.2896 13.1867 88.4296 13.0267 88.603 12.92C88.803 12.8 89.0163 12.74 89.243 12.74C89.3363 12.74 89.423 12.7467 89.503 12.76C89.5963 12.76 89.683 12.7667 89.763 12.78C90.0296 12.8333 90.2563 12.9933 90.443 13.26C90.643 13.5133 90.8296 13.7333 91.003 13.92C91.1096 14.04 91.223 14.1867 91.343 14.36C91.463 14.5333 91.583 14.7133 91.703 14.9C91.823 15.0867 91.9363 15.2667 92.043 15.44C92.1496 15.6133 92.243 15.7667 92.323 15.9C92.6696 16.46 92.9763 16.9733 93.243 17.44C93.523 17.9067 93.783 18.3067 94.023 18.64C94.063 18.6 94.1096 18.5467 94.163 18.48C94.2163 18.4 94.2696 18.32 94.323 18.24C94.3896 18.1467 94.443 18.06 94.483 17.98C94.5363 17.9 94.5763 17.8333 94.603 17.78C94.7363 17.5667 94.8696 17.36 95.003 17.16C95.1363 16.9467 95.2763 16.7267 95.423 16.5C95.583 16.26 95.743 16 95.903 15.72C96.0763 15.44 96.2763 15.12 96.503 14.76C96.5963 14.6 96.7163 14.4067 96.863 14.18C97.0096 13.9533 97.1763 13.7333 97.363 13.52C97.5496 13.3067 97.743 13.1267 97.943 12.98C98.1563 12.82 98.3696 12.74 98.583 12.74C98.6896 12.74 98.783 12.7467 98.863 12.76C98.943 12.76 99.023 12.7667 99.103 12.78C99.263 12.7933 99.4163 12.8667 99.563 13C99.6696 13.1067 99.7496 13.22 99.803 13.34C99.8563 13.5133 99.8896 13.66 99.903 13.78C99.9163 13.8733 99.923 13.96 99.923 14.04C99.9363 14.12 99.943 14.2 99.943 14.28C99.943 15.0267 99.9496 15.7667 99.963 16.5C99.9763 17.2333 99.983 17.9733 99.983 18.72C99.983 19.6267 99.983 20.56 99.983 21.52C99.9963 22.48 100.003 23.4133 100.003 24.32C100.003 24.5067 100.01 24.7067 100.023 24.92C100.036 25.1333 100.036 25.3467 100.023 25.56ZM104.392 15.24L104.352 18.38H105.152C105.698 18.3667 106.185 18.36 106.612 18.36C107.038 18.36 107.512 18.3667 108.032 18.38H108.132C108.292 18.38 108.445 18.3867 108.592 18.4C108.752 18.4 108.905 18.4 109.052 18.4C109.212 18.4133 109.365 18.44 109.512 18.48C109.658 18.5067 109.805 18.54 109.952 18.58C110.178 18.66 110.365 18.78 110.512 18.94C110.645 19.1133 110.712 19.3067 110.712 19.52C110.712 19.5867 110.712 19.6667 110.712 19.76C110.712 19.84 110.698 19.9133 110.672 19.98C110.645 20.1267 110.558 20.26 110.412 20.38C110.345 20.4733 110.218 20.54 110.032 20.58C109.858 20.6333 109.685 20.6667 109.512 20.68C109.325 20.72 109.138 20.74 108.952 20.74H108.012L104.312 20.76L104.272 24.68L108.252 24.72H109.192C109.298 24.72 109.398 24.72 109.492 24.72C109.585 24.72 109.672 24.7267 109.752 24.74C109.858 24.7667 109.952 24.7867 110.032 24.8C110.125 24.8 110.212 24.8133 110.292 24.84C110.452 24.8933 110.585 24.9667 110.692 25.06C110.825 25.1933 110.912 25.3333 110.952 25.48C110.965 25.5467 110.972 25.62 110.972 25.7C110.985 25.7667 110.985 25.84 110.972 25.92C110.972 26.1333 110.905 26.3267 110.772 26.5C110.612 26.6867 110.425 26.8067 110.212 26.86C109.932 26.98 109.625 27.04 109.292 27.04C109.145 27.0533 108.992 27.06 108.832 27.06C108.672 27.06 108.518 27.0667 108.372 27.08H108.252C107.212 27.1067 106.132 27.1067 105.012 27.08C104.745 27.08 104.532 27.0733 104.372 27.06C104.212 27.06 104.065 27.06 103.932 27.06C103.812 27.06 103.685 27.06 103.552 27.06C103.418 27.06 103.245 27.06 103.032 27.06C102.725 27.0867 102.472 27.0333 102.272 26.9C102.125 26.8067 102.012 26.68 101.932 26.52C101.892 26.48 101.872 26.44 101.872 26.4C101.858 26.3733 101.845 26.3533 101.832 26.34C101.818 26.3267 101.805 26.3067 101.792 26.28C101.765 26.2133 101.745 26.1467 101.732 26.08C101.718 26 101.712 25.9267 101.712 25.86C101.698 25.7933 101.685 25.7267 101.672 25.66C101.672 25.5933 101.665 25.5267 101.652 25.46V25.14C101.652 25.0867 101.652 25.0333 101.652 24.98C101.665 24.9267 101.672 24.8733 101.672 24.82V23.26L101.712 20.38V17.72C101.712 17.24 101.712 16.8133 101.712 16.44C101.725 16.0667 101.738 15.66 101.752 15.22V15.12C101.765 14.9733 101.772 14.84 101.772 14.72C101.785 14.5867 101.792 14.4533 101.792 14.32C101.805 14.0533 101.878 13.7933 102.012 13.54C102.065 13.4333 102.118 13.34 102.172 13.26C102.238 13.18 102.325 13.1133 102.432 13.06C102.632 12.94 102.838 12.88 103.052 12.88C103.158 12.88 103.238 12.8867 103.292 12.9V12.88C103.532 12.88 103.725 12.88 103.872 12.88C104.018 12.88 104.158 12.88 104.292 12.88C104.438 12.88 104.592 12.88 104.752 12.88C104.912 12.8667 105.132 12.86 105.412 12.86C105.945 12.8467 106.452 12.84 106.932 12.84C107.412 12.84 107.905 12.8467 108.412 12.86H108.492C108.638 12.8733 108.792 12.88 108.952 12.88C109.112 12.88 109.265 12.8867 109.412 12.9C109.558 12.9 109.705 12.92 109.852 12.96C109.998 12.9867 110.145 13.0267 110.292 13.08C110.518 13.1467 110.705 13.26 110.852 13.42C110.972 13.6067 111.032 13.7933 111.032 13.98C111.032 14.06 111.032 14.14 111.032 14.22C111.032 14.2867 111.018 14.3533 110.992 14.42C110.978 14.5533 110.898 14.6933 110.752 14.84C110.698 14.8667 110.638 14.9 110.572 14.94C110.518 14.98 110.452 15.0133 110.372 15.04C110.292 15.0667 110.205 15.0867 110.112 15.1C110.032 15.1 109.952 15.1067 109.872 15.12C109.765 15.1467 109.665 15.16 109.572 15.16C109.492 15.16 109.398 15.16 109.292 15.16H108.392L104.392 15.18V15.24ZM122.948 26.12C122.961 26.2533 122.948 26.38 122.908 26.5C122.881 26.58 122.841 26.6467 122.788 26.7C122.748 26.7533 122.695 26.8067 122.628 26.86C122.508 26.94 122.361 27.0133 122.188 27.08C122.081 27.1067 121.975 27.1267 121.868 27.14C121.775 27.1667 121.675 27.1667 121.568 27.14C121.355 27.1267 121.168 27.0467 121.008 26.9C120.781 26.7133 120.595 26.5067 120.448 26.28C120.381 26.1733 120.308 26.0533 120.228 25.92C120.148 25.7867 120.075 25.6467 120.008 25.5L117.788 21.28C117.681 21.28 117.575 21.2867 117.468 21.3C117.361 21.3 117.255 21.3067 117.148 21.32C116.868 21.3467 116.601 21.3533 116.348 21.34C116.108 21.3267 115.855 21.3267 115.588 21.34H115.208V24.96C115.208 25.0667 115.201 25.1667 115.188 25.26C115.188 25.3533 115.188 25.4533 115.188 25.56C115.188 25.6267 115.181 25.7133 115.168 25.82C115.168 25.9267 115.161 26.0267 115.148 26.12C115.121 26.2667 115.061 26.42 114.968 26.58C114.875 26.7267 114.748 26.8533 114.588 26.96C114.308 27.1333 113.968 27.18 113.568 27.1C113.395 27.06 113.228 26.9933 113.068 26.9C113.015 26.86 112.968 26.8133 112.928 26.76C112.888 26.6933 112.855 26.6267 112.828 26.56C112.801 26.4933 112.775 26.4267 112.748 26.36C112.735 26.28 112.715 26.2067 112.688 26.14C112.648 26.0067 112.628 25.88 112.628 25.76V14.4C112.628 14.32 112.628 14.24 112.628 14.16C112.641 14.0667 112.655 13.9867 112.668 13.92C112.681 13.7733 112.728 13.6267 112.808 13.48C112.848 13.32 112.915 13.2067 113.008 13.14C113.088 13.06 113.208 12.9933 113.368 12.94C113.541 12.8733 113.788 12.8467 114.108 12.86C114.708 12.8733 115.301 12.88 115.888 12.88C116.475 12.88 117.061 12.8933 117.648 12.92C118.035 12.9467 118.441 12.9933 118.868 13.06C119.308 13.1133 119.715 13.2133 120.088 13.36C120.328 13.4533 120.548 13.5467 120.748 13.64C121.001 13.7867 121.201 13.9267 121.348 14.06C121.815 14.4867 122.168 15 122.408 15.6C122.648 16.2 122.768 16.8067 122.768 17.42C122.768 18.14 122.595 18.8 122.248 19.4C121.915 20 121.375 20.4467 120.628 20.74C120.601 20.7667 120.561 20.7867 120.508 20.8C120.468 20.8 120.435 20.8067 120.408 20.82L122.248 24.52L122.428 24.84C122.455 24.8933 122.488 24.9533 122.528 25.02C122.568 25.0867 122.601 25.1533 122.628 25.22C122.668 25.2867 122.701 25.36 122.728 25.44C122.768 25.52 122.808 25.5933 122.848 25.66C122.888 25.8467 122.921 26 122.948 26.12ZM117.948 19C118.188 19 118.415 18.96 118.628 18.88C118.855 18.7867 119.055 18.6667 119.228 18.52C119.415 18.3733 119.568 18.2067 119.688 18.02C119.808 17.82 119.875 17.6067 119.888 17.38C119.941 16.7133 119.768 16.22 119.368 15.9C118.968 15.5667 118.441 15.3867 117.788 15.36C117.401 15.3333 116.975 15.32 116.508 15.32C116.055 15.32 115.621 15.32 115.208 15.32C115.221 15.8667 115.221 16.4267 115.208 17C115.208 17.56 115.208 18.2267 115.208 19H117.948ZM140.377 23.64C140.55 24.0267 140.557 24.4067 140.397 24.78C140.237 25.14 139.984 25.4733 139.637 25.78C139.29 26.0867 138.89 26.3533 138.437 26.58C137.997 26.8067 137.577 26.9667 137.177 27.06C136.737 27.1533 136.27 27.1933 135.777 27.18C135.297 27.18 134.81 27.12 134.317 27C133.837 26.8933 133.364 26.7333 132.897 26.52C132.444 26.2933 132.024 26.02 131.637 25.7C131.17 25.3133 130.804 24.8533 130.537 24.32C130.284 23.7733 130.097 23.1933 129.977 22.58C129.857 21.9667 129.79 21.3533 129.777 20.74C129.777 20.1133 129.797 19.5267 129.837 18.98C129.877 18.4867 129.977 17.9733 130.137 17.44C130.297 16.9067 130.517 16.3867 130.797 15.88C131.09 15.36 131.437 14.88 131.837 14.44C132.25 14 132.73 13.6267 133.277 13.32C133.69 13.08 134.15 12.92 134.657 12.84C135.177 12.7467 135.697 12.7267 136.217 12.78C136.75 12.82 137.25 12.9333 137.717 13.12C138.197 13.2933 138.604 13.5333 138.937 13.84C139.15 14.0267 139.37 14.2867 139.597 14.62C139.837 14.9533 140.01 15.2933 140.117 15.64C140.224 15.9867 140.224 16.3133 140.117 16.62C140.024 16.9133 139.757 17.1133 139.317 17.22C139.13 17.2733 138.964 17.2867 138.817 17.26C138.67 17.22 138.537 17.16 138.417 17.08C138.297 16.9867 138.184 16.88 138.077 16.76C137.97 16.64 137.87 16.52 137.777 16.4C137.457 16.0133 137.084 15.7533 136.657 15.62C136.23 15.4733 135.804 15.44 135.377 15.52C134.964 15.5867 134.57 15.76 134.197 16.04C133.837 16.3067 133.557 16.6533 133.357 17.08C133.144 17.5333 132.97 18.0333 132.837 18.58C132.717 19.1133 132.65 19.66 132.637 20.22C132.624 20.7667 132.67 21.3 132.777 21.82C132.897 22.34 133.097 22.8 133.377 23.2C133.59 23.52 133.85 23.78 134.157 23.98C134.477 24.18 134.817 24.32 135.177 24.4C135.537 24.48 135.897 24.4933 136.257 24.44C136.63 24.3867 136.99 24.2667 137.337 24.08C137.444 24.0267 137.557 23.9533 137.677 23.86C137.81 23.7533 137.944 23.6467 138.077 23.54C138.21 23.4333 138.344 23.3333 138.477 23.24C138.624 23.1467 138.777 23.08 138.937 23.04C139.177 22.96 139.437 22.9667 139.717 23.06C140.01 23.1533 140.23 23.3467 140.377 23.64ZM154.46 25.64C154.474 25.72 154.48 25.8 154.48 25.88C154.494 25.9467 154.5 26.0267 154.5 26.12C154.5 26.28 154.454 26.4267 154.36 26.56C154.32 26.6267 154.267 26.6933 154.2 26.76C154.134 26.8133 154.054 26.86 153.96 26.9C153.627 27.0867 153.274 27.1533 152.9 27.1C152.714 27.0467 152.547 26.96 152.4 26.84C152.374 26.8133 152.354 26.8 152.34 26.8C152.327 26.7867 152.314 26.7667 152.3 26.74C152.287 26.7267 152.274 26.7133 152.26 26.7C152.247 26.6733 152.227 26.6533 152.2 26.64C152.134 26.5733 152.08 26.5133 152.04 26.46C152 26.3933 151.96 26.3267 151.92 26.26C151.894 26.1933 151.86 26.1333 151.82 26.08C151.794 26.0133 151.76 25.9467 151.72 25.88C151.694 25.8267 151.667 25.78 151.64 25.74C151.614 25.6867 151.594 25.6333 151.58 25.58C151.527 25.46 151.494 25.3533 151.48 25.26L151.06 24.28C150.14 24.28 149.22 24.2867 148.3 24.3C147.394 24.3 146.48 24.2933 145.56 24.28L145.14 25.26C145.114 25.3133 145.094 25.3667 145.08 25.42C145.08 25.4733 145.067 25.5267 145.04 25.58C145.014 25.6333 144.987 25.6867 144.96 25.74C144.947 25.78 144.927 25.8267 144.9 25.88C144.86 25.9467 144.82 26.0133 144.78 26.08C144.754 26.1333 144.72 26.1933 144.68 26.26C144.654 26.3267 144.62 26.3933 144.58 26.46C144.54 26.5133 144.487 26.5733 144.42 26.64C144.394 26.6533 144.374 26.6733 144.36 26.7C144.347 26.7133 144.334 26.7267 144.32 26.74C144.307 26.7667 144.294 26.7867 144.28 26.8C144.267 26.8 144.247 26.8133 144.22 26.84C144.074 26.96 143.907 27.0467 143.72 27.1C143.347 27.1533 142.994 27.0867 142.66 26.9C142.567 26.86 142.487 26.8133 142.42 26.76C142.354 26.6933 142.3 26.6267 142.26 26.56C142.167 26.4267 142.12 26.28 142.12 26.12C142.12 26.0267 142.12 25.9467 142.12 25.88C142.134 25.8 142.147 25.72 142.16 25.64C142.187 25.52 142.22 25.4 142.26 25.28C142.3 25.16 142.32 25.1 142.32 25.1L146.48 14.86L146.6 14.54C146.627 14.46 146.66 14.3867 146.7 14.32C146.74 14.2533 146.774 14.1733 146.8 14.08C146.867 13.9067 146.94 13.7533 147.02 13.62C147.06 13.54 147.107 13.4667 147.16 13.4C147.214 13.3333 147.267 13.2667 147.32 13.2C147.4 13.0933 147.514 13.0067 147.66 12.94C147.847 12.8733 148.06 12.84 148.3 12.84C148.554 12.84 148.774 12.8733 148.96 12.94C149.107 13.0067 149.22 13.0933 149.3 13.2C149.394 13.32 149.494 13.46 149.6 13.62C149.68 13.7533 149.754 13.9067 149.82 14.08C149.847 14.1733 149.88 14.2533 149.92 14.32C149.96 14.3867 149.994 14.46 150.02 14.54L150.14 14.86L154.3 25.1C154.3 25.1 154.32 25.16 154.36 25.28C154.4 25.4 154.434 25.52 154.46 25.64ZM149.72 20.74C149.547 20.3533 149.367 19.9533 149.18 19.54C149.007 19.1267 148.82 18.7067 148.62 18.28C148.567 18.16 148.514 18.04 148.46 17.92C148.407 17.7867 148.354 17.66 148.3 17.54C148.26 17.66 148.214 17.7867 148.16 17.92C148.107 18.04 148.054 18.16 148 18.28C147.8 18.7067 147.607 19.1267 147.42 19.54C147.247 19.9533 147.074 20.3533 146.9 20.74L146.54 21.62H150.08L149.72 20.74ZM168.285 25.56C168.271 25.72 168.251 25.8867 168.225 26.06C168.198 26.2333 168.151 26.3933 168.085 26.54C168.018 26.7 167.931 26.82 167.825 26.9C167.678 27.0333 167.505 27.1067 167.305 27.12C167.118 27.1867 166.938 27.2067 166.765 27.18C166.591 27.1533 166.431 27.1067 166.285 27.04C166.098 26.92 165.958 26.78 165.865 26.62C165.785 26.4467 165.725 26.2667 165.685 26.08C165.645 25.8933 165.625 25.7 165.625 25.5C165.625 25.3 165.625 25.1133 165.625 24.94V23.38L165.605 20.32C165.605 20.1067 165.605 19.94 165.605 19.82C165.605 19.7 165.605 19.5933 165.605 19.5C165.605 19.3933 165.598 19.28 165.585 19.16C165.585 19.0267 165.585 18.84 165.585 18.6C165.585 18.56 165.585 18.4933 165.585 18.4C165.598 18.2933 165.591 18.02 165.565 17.58C165.045 18.4467 164.611 19.1467 164.265 19.68C163.931 20.2 163.645 20.6067 163.405 20.9C163.178 21.18 162.978 21.3733 162.805 21.48C162.631 21.5733 162.451 21.6267 162.265 21.64C162.158 21.6533 162.051 21.6333 161.945 21.58C161.838 21.5267 161.731 21.46 161.625 21.38C161.531 21.3 161.438 21.22 161.345 21.14C161.265 21.0467 161.198 20.96 161.145 20.88C160.825 20.48 160.465 20 160.065 19.44C159.665 18.88 159.251 18.2 158.825 17.4C158.825 17.4133 158.818 17.6333 158.805 18.06C158.805 18.4867 158.805 19.02 158.805 19.66C158.805 20.2867 158.798 20.9667 158.785 21.7C158.785 22.42 158.778 23.0933 158.765 23.72C158.765 24.3467 158.758 24.8733 158.745 25.3C158.731 25.7133 158.718 25.92 158.705 25.92C158.705 26.1467 158.651 26.36 158.545 26.56C158.438 26.7467 158.291 26.9 158.105 27.02C157.931 27.14 157.725 27.2067 157.485 27.22C157.245 27.2333 156.985 27.1667 156.705 27.02C156.531 26.9133 156.398 26.76 156.305 26.56C156.225 26.36 156.171 26.1733 156.145 26C156.131 25.8133 156.118 25.6333 156.105 25.46C156.105 25.2867 156.105 25.1067 156.105 24.92L156.125 23.36L156.145 20.28V17.6C156.145 16.44 156.185 15.3 156.265 14.18C156.265 14.0333 156.278 13.9 156.305 13.78C156.345 13.6467 156.391 13.52 156.445 13.4C156.551 13.1867 156.691 13.0267 156.865 12.92C157.065 12.8 157.278 12.74 157.505 12.74C157.598 12.74 157.685 12.7467 157.765 12.76C157.858 12.76 157.945 12.7667 158.025 12.78C158.291 12.8333 158.518 12.9933 158.705 13.26C158.905 13.5133 159.091 13.7333 159.265 13.92C159.371 14.04 159.485 14.1867 159.605 14.36C159.725 14.5333 159.845 14.7133 159.965 14.9C160.085 15.0867 160.198 15.2667 160.305 15.44C160.411 15.6133 160.505 15.7667 160.585 15.9C160.931 16.46 161.238 16.9733 161.505 17.44C161.785 17.9067 162.045 18.3067 162.285 18.64C162.325 18.6 162.371 18.5467 162.425 18.48C162.478 18.4 162.531 18.32 162.585 18.24C162.651 18.1467 162.705 18.06 162.745 17.98C162.798 17.9 162.838 17.8333 162.865 17.78C162.998 17.5667 163.131 17.36 163.265 17.16C163.398 16.9467 163.538 16.7267 163.685 16.5C163.845 16.26 164.005 16 164.165 15.72C164.338 15.44 164.538 15.12 164.765 14.76C164.858 14.6 164.978 14.4067 165.125 14.18C165.271 13.9533 165.438 13.7333 165.625 13.52C165.811 13.3067 166.005 13.1267 166.205 12.98C166.418 12.82 166.631 12.74 166.845 12.74C166.951 12.74 167.045 12.7467 167.125 12.76C167.205 12.76 167.285 12.7667 167.365 12.78C167.525 12.7933 167.678 12.8667 167.825 13C167.931 13.1067 168.011 13.22 168.065 13.34C168.118 13.5133 168.151 13.66 168.165 13.78C168.178 13.8733 168.185 13.96 168.185 14.04C168.198 14.12 168.205 14.2 168.205 14.28C168.205 15.0267 168.211 15.7667 168.225 16.5C168.238 17.2333 168.245 17.9733 168.245 18.72C168.245 19.6267 168.245 20.56 168.245 21.52C168.258 22.48 168.265 23.4133 168.265 24.32C168.265 24.5067 168.271 24.7067 168.285 24.92C168.298 25.1333 168.298 25.3467 168.285 25.56ZM178.964 14.1C179.471 14.5667 179.844 15.1267 180.084 15.78C180.324 16.42 180.417 17.06 180.364 17.7C180.311 18.3133 180.117 18.88 179.784 19.4C179.451 19.9067 178.944 20.2933 178.264 20.56C177.731 20.7867 177.204 20.9467 176.684 21.04C176.164 21.1333 175.591 21.2067 174.964 21.26C174.684 21.2867 174.444 21.3067 174.244 21.32C174.057 21.32 173.837 21.3267 173.584 21.34C173.531 21.34 173.437 21.34 173.304 21.34C173.184 21.34 173.097 21.3467 173.044 21.36V25.5C173.004 25.7533 172.951 26.0133 172.884 26.28C172.831 26.5467 172.677 26.7533 172.424 26.9C172.277 26.98 172.097 27.0267 171.884 27.04C171.671 27.0533 171.477 27.0467 171.304 27.02C171.117 26.9933 170.957 26.9467 170.824 26.88C170.704 26.8 170.604 26.6667 170.524 26.48C170.471 26.36 170.417 26.2267 170.364 26.08C170.324 25.92 170.304 25.7267 170.304 25.5V14.44C170.304 14.3467 170.311 14.26 170.324 14.18C170.337 14.1 170.351 14.02 170.364 13.94C170.391 13.8733 170.411 13.8 170.424 13.72C170.437 13.64 170.457 13.5667 170.484 13.5C170.511 13.4333 170.537 13.3733 170.564 13.32C170.604 13.2667 170.651 13.22 170.704 13.18C170.771 13.1133 170.871 13.0533 171.004 13C171.151 12.9467 171.364 12.92 171.644 12.92H171.684C172.097 12.8933 172.557 12.8733 173.064 12.86C173.571 12.8333 173.991 12.84 174.324 12.88C174.511 12.9067 174.684 12.9267 174.844 12.94C175.004 12.94 175.157 12.9467 175.304 12.96C175.464 12.9733 175.624 12.9867 175.784 13C175.944 13.0133 176.104 13.0333 176.264 13.06C176.397 13.0867 176.517 13.1067 176.624 13.12C176.744 13.1333 176.864 13.1533 176.984 13.18C177.091 13.2067 177.204 13.2333 177.324 13.26C177.457 13.2867 177.577 13.3333 177.684 13.4C177.964 13.48 178.197 13.58 178.384 13.7C178.571 13.82 178.764 13.9533 178.964 14.1ZM177.764 17.4C177.777 17.08 177.711 16.8 177.564 16.56C177.431 16.32 177.237 16.12 176.984 15.96C176.731 15.8 176.444 15.6733 176.124 15.58C175.804 15.4867 175.484 15.42 175.164 15.38C175.084 15.38 174.971 15.38 174.824 15.38C174.691 15.3667 174.544 15.36 174.384 15.36C174.224 15.3467 174.071 15.34 173.924 15.34C173.791 15.3267 173.684 15.32 173.604 15.32C173.537 15.3067 173.457 15.3 173.364 15.3C173.271 15.3 173.164 15.3 173.044 15.3C173.057 15.7133 173.064 16.1133 173.064 16.5C173.064 16.8733 173.064 17.28 173.064 17.72C173.051 17.96 173.044 18.2 173.044 18.44C173.044 18.68 173.044 18.9133 173.044 19.14L174.284 19.12C174.604 19.12 174.957 19.1 175.344 19.06C175.731 19.02 176.097 18.94 176.444 18.82C176.791 18.7 177.084 18.5267 177.324 18.3C177.577 18.0733 177.724 17.7733 177.764 17.4Z" fill="#A63352"/>
<path d="M48.8097 40V39.5135L51.1854 36.843C51.4955 36.4927 51.7453 36.1932 51.9347 35.9446C52.1241 35.696 52.2614 35.4664 52.3466 35.2557C52.4342 35.045 52.478 34.826 52.478 34.5987C52.478 34.3217 52.4129 34.0803 52.2827 33.8743C52.1548 33.666 51.9785 33.5038 51.7536 33.3878C51.5286 33.2718 51.2753 33.2138 50.9936 33.2138C50.6953 33.2138 50.4337 33.2777 50.2088 33.4055C49.9863 33.5334 49.8134 33.7086 49.6903 33.9311C49.5672 34.1536 49.5057 34.4093 49.5057 34.6982H48.87C48.87 34.2957 48.9624 33.9394 49.147 33.6293C49.334 33.3168 49.5885 33.0717 49.9105 32.8942C50.2348 32.7166 50.6018 32.6278 51.0114 32.6278C51.4162 32.6278 51.776 32.7154 52.0909 32.8906C52.4058 33.0634 52.6532 33.299 52.8331 33.5973C53.013 33.8956 53.103 34.2294 53.103 34.5987C53.103 34.8662 53.0556 35.1255 52.9609 35.3764C52.8686 35.6274 52.7088 35.9067 52.4815 36.2145C52.2543 36.5223 51.9394 36.8987 51.5369 37.3438L49.733 39.3572V39.4034H53.3303V40H48.8097ZM57.1575 32.7273V40H56.4934V33.4233H56.4508L54.7463 34.5561V33.8672L56.465 32.7273H57.1575ZM61.4934 40.0994C61.0886 40.0994 60.7264 40.0178 60.4068 39.8544C60.0895 39.6887 59.8362 39.4614 59.6468 39.1726C59.4598 38.8838 59.3604 38.5535 59.3485 38.1818H59.9913C60.0126 38.5677 60.1641 38.8849 60.4458 39.1335C60.7276 39.3797 61.0768 39.5028 61.4934 39.5028C61.8178 39.5028 62.1066 39.4259 62.3599 39.272C62.6132 39.1158 62.8109 38.9027 62.9529 38.6328C63.0974 38.3606 63.1696 38.054 63.1696 37.7131C63.1672 37.358 63.0903 37.0455 62.9387 36.7756C62.7872 36.5033 62.5813 36.2902 62.3208 36.1364C62.0628 35.9825 61.7728 35.9055 61.4508 35.9055C61.207 35.9032 60.9679 35.9434 60.7335 36.0263C60.4991 36.1091 60.3038 36.2157 60.1475 36.3459L59.4835 36.2607L59.9203 32.7273H63.514V33.3239H60.4778L60.1866 35.7564H60.2221C60.3831 35.6214 60.5784 35.5114 60.8081 35.4261C61.0401 35.3409 61.2851 35.2983 61.5431 35.2983C61.9717 35.2983 62.3564 35.4013 62.6973 35.6072C63.0405 35.8132 63.3116 36.0973 63.5105 36.4595C63.7117 36.8194 63.8123 37.2337 63.8123 37.7024C63.8123 38.1617 63.7117 38.5724 63.5105 38.9347C63.3116 39.2945 63.037 39.5786 62.6866 39.7869C62.3386 39.9953 61.9409 40.0994 61.4934 40.0994ZM68.2921 40V32.7273H68.9277V35.5859H68.9846C69.0556 35.4226 69.1574 35.2545 69.29 35.0817C69.4249 34.9089 69.6013 34.7644 69.8191 34.6484C70.0392 34.5301 70.3162 34.4709 70.65 34.4709C71.0975 34.4709 71.4905 34.5893 71.829 34.826C72.1676 35.0604 72.4315 35.3894 72.6209 35.8132C72.8103 36.2346 72.905 36.7259 72.905 37.2869C72.905 37.8504 72.8103 38.344 72.6209 38.7678C72.4339 39.1915 72.1711 39.5218 71.8326 39.7585C71.4964 39.9953 71.1058 40.1136 70.6607 40.1136C70.3292 40.1136 70.0523 40.0545 69.8297 39.9361C69.6096 39.8177 69.432 39.6721 69.2971 39.4993C69.1621 39.3241 69.0579 39.1536 68.9846 38.9879H68.9064V40H68.2921ZM68.9171 37.2763C68.9171 37.7166 68.9822 38.1072 69.1124 38.4482C69.245 38.7867 69.4344 39.053 69.6806 39.2472C69.9292 39.4389 70.2298 39.5348 70.5826 39.5348C70.9448 39.5348 71.2514 39.4354 71.5023 39.2365C71.7533 39.0353 71.9438 38.7642 72.074 38.4233C72.2042 38.0824 72.2694 37.7 72.2694 37.2763C72.2694 36.8572 72.2042 36.4796 72.074 36.1435C71.9462 35.8073 71.7568 35.541 71.5059 35.3445C71.2549 35.1456 70.9471 35.0462 70.5826 35.0462C70.2275 35.0462 69.9256 35.142 69.677 35.3338C69.4308 35.5232 69.2426 35.786 69.1124 36.1222C68.9822 36.456 68.9171 36.8407 68.9171 37.2763ZM76.4135 40.1136C75.9424 40.1136 75.5257 39.9941 75.1635 39.755C74.8037 39.5159 74.522 39.1856 74.3184 38.7642C74.1148 38.3404 74.013 37.8516 74.013 37.2976C74.013 36.7389 74.1148 36.2476 74.3184 35.8239C74.522 35.3977 74.8037 35.0663 75.1635 34.8295C75.5257 34.5904 75.9424 34.4709 76.4135 34.4709C76.8846 34.4709 77.3001 34.5904 77.66 34.8295C78.0198 35.0687 78.3016 35.4001 78.5051 35.8239C78.7111 36.2476 78.8141 36.7389 78.8141 37.2976C78.8141 37.8516 78.7123 38.3404 78.5087 38.7642C78.3051 39.1856 78.0222 39.5159 77.66 39.755C77.3001 39.9941 76.8846 40.1136 76.4135 40.1136ZM76.4135 39.5348C76.7923 39.5348 77.1131 39.433 77.3759 39.2294C77.6387 39.0258 77.8375 38.7547 77.9725 38.4162C78.1098 38.0777 78.1784 37.7048 78.1784 37.2976C78.1784 36.8904 78.1098 36.5163 77.9725 36.1754C77.8375 35.8345 77.6387 35.5611 77.3759 35.3551C77.1131 35.1491 76.7923 35.0462 76.4135 35.0462C76.0371 35.0462 75.7163 35.1491 75.4512 35.3551C75.1884 35.5611 74.9883 35.8345 74.851 36.1754C74.7161 36.5163 74.6486 36.8904 74.6486 37.2976C74.6486 37.7048 74.7161 38.0777 74.851 38.4162C74.9883 38.7547 75.1884 39.0258 75.4512 39.2294C75.714 39.433 76.0347 39.5348 76.4135 39.5348ZM83.6676 37.9155V34.5455H84.2997V40H83.6676V39.0945H83.6179C83.4901 39.3738 83.2876 39.607 83.0107 39.794C82.7337 39.9787 82.3951 40.071 81.995 40.071C81.647 40.071 81.3381 39.9953 81.0682 39.8438C80.7983 39.6899 80.5864 39.465 80.4325 39.169C80.2786 38.8731 80.2017 38.5097 80.2017 38.0788V34.5455H80.8338V38.0398C80.8338 38.4659 80.9593 38.8092 81.2102 39.0696C81.4612 39.3277 81.7831 39.4567 82.1761 39.4567C82.4223 39.4567 82.6591 39.3975 82.8864 39.2791C83.1136 39.1607 83.3007 38.9879 83.4474 38.7607C83.5942 38.531 83.6676 38.2493 83.6676 37.9155ZM86.6053 32.7273V40H85.9732V32.7273H86.6053ZM93.0542 40.1136C92.6067 40.1136 92.2149 39.9953 91.8787 39.7585C91.5426 39.5218 91.2798 39.1915 91.0904 38.7678C90.9033 38.344 90.8098 37.8504 90.8098 37.2869C90.8098 36.7259 90.9033 36.2346 91.0904 35.8132C91.2798 35.3894 91.5437 35.0604 91.8823 34.826C92.2208 34.5893 92.615 34.4709 93.0648 34.4709C93.3962 34.4709 93.6721 34.5301 93.8922 34.6484C94.1124 34.7644 94.2888 34.9089 94.4213 35.0817C94.5539 35.2545 94.6569 35.4226 94.7303 35.5859H94.7871V32.7273H95.4228V40H94.8049V38.9879H94.7303C94.6569 39.1536 94.5527 39.3241 94.4178 39.4993C94.2828 39.6721 94.1041 39.8177 93.8816 39.9361C93.6614 40.0545 93.3856 40.1136 93.0542 40.1136ZM93.1287 39.5348C93.4815 39.5348 93.7821 39.4389 94.0307 39.2472C94.2793 39.053 94.4687 38.7867 94.5989 38.4482C94.7315 38.1072 94.7978 37.7166 94.7978 37.2763C94.7978 36.8407 94.7327 36.456 94.6025 36.1222C94.4722 35.786 94.2828 35.5232 94.0343 35.3338C93.7857 35.142 93.4838 35.0462 93.1287 35.0462C92.7641 35.0462 92.4564 35.1456 92.2054 35.3445C91.9569 35.541 91.7675 35.8073 91.6373 36.1435C91.5094 36.4796 91.4455 36.8572 91.4455 37.2763C91.4455 37.7 91.5106 38.0824 91.6408 38.4233C91.771 38.7642 91.9604 39.0353 92.209 39.2365C92.4599 39.4354 92.7665 39.5348 93.1287 39.5348ZM97.763 32.7273V35.1527H97.1664V32.7273H97.763ZM98.7324 40H98.0364L100.682 32.7273H101.392L104.038 40H103.342L101.062 33.5902H101.012L98.7324 40ZM99.2331 37.2124H102.841V37.8089H99.2331V37.2124ZM105.153 40V34.5455H105.767V35.3835H105.824C105.933 35.1018 106.114 34.8804 106.367 34.7195C106.623 34.5561 106.93 34.4744 107.287 34.4744C107.664 34.4744 107.972 34.5632 108.214 34.7408C108.458 34.916 108.64 35.1574 108.761 35.4652H108.807C108.93 35.1622 109.13 34.9219 109.407 34.7443C109.686 34.5644 110.025 34.4744 110.423 34.4744C110.929 34.4744 111.329 34.6342 111.623 34.9538C111.917 35.2711 112.063 35.7351 112.063 36.3459V40H111.431V36.3459C111.431 35.915 111.321 35.5919 111.101 35.3764C110.881 35.161 110.591 35.0533 110.231 35.0533C109.814 35.0533 109.494 35.1811 109.269 35.4368C109.044 35.6925 108.931 36.0168 108.931 36.4098V40H108.285V36.2891C108.285 35.9197 108.182 35.6214 107.976 35.3942C107.77 35.1669 107.48 35.0533 107.106 35.0533C106.855 35.0533 106.629 35.1148 106.428 35.2379C106.229 35.361 106.071 35.5327 105.955 35.7528C105.842 35.9706 105.785 36.2216 105.785 36.5057V40H105.153ZM117.402 35.7422L116.823 35.9055C116.766 35.7422 116.685 35.5942 116.581 35.4616C116.477 35.3291 116.341 35.2237 116.173 35.1456C116.007 35.0675 115.801 35.0284 115.555 35.0284C115.186 35.0284 114.883 35.116 114.646 35.2912C114.409 35.4664 114.291 35.6925 114.291 35.9695C114.291 36.2038 114.371 36.3944 114.532 36.5412C114.696 36.6856 114.947 36.8004 115.285 36.8857L116.109 37.0881C116.566 37.1993 116.908 37.3757 117.135 37.6172C117.365 37.8587 117.48 38.1617 117.48 38.5263C117.48 38.834 117.395 39.1075 117.224 39.3466C117.054 39.5857 116.816 39.7739 116.51 39.9112C116.207 40.0462 115.856 40.1136 115.456 40.1136C114.923 40.1136 114.484 39.9941 114.138 39.755C113.792 39.5135 113.571 39.1655 113.474 38.7109L114.081 38.5618C114.159 38.8861 114.312 39.1312 114.539 39.2969C114.769 39.4626 115.071 39.5455 115.445 39.5455C115.864 39.5455 116.199 39.4519 116.45 39.2649C116.701 39.0755 116.826 38.8388 116.826 38.5547C116.826 38.3345 116.753 38.1499 116.606 38.0007C116.459 37.8492 116.237 37.7379 115.939 37.6669L115.047 37.4538C114.574 37.3402 114.223 37.1603 113.996 36.9141C113.769 36.6679 113.655 36.3625 113.655 35.9979C113.655 35.6972 113.737 35.4332 113.9 35.206C114.064 34.9763 114.288 34.7964 114.575 34.6662C114.861 34.536 115.188 34.4709 115.555 34.4709C116.055 34.4709 116.453 34.5845 116.752 34.8118C117.052 35.0367 117.269 35.3468 117.402 35.7422ZM121.012 34.5455V35.0959H118.409V34.5455H121.012ZM119.222 33.2386H119.858V38.576C119.858 38.8033 119.897 38.982 119.975 39.1122C120.053 39.2401 120.155 39.3312 120.281 39.3857C120.406 39.4377 120.54 39.4638 120.682 39.4638C120.765 39.4638 120.836 39.459 120.895 39.4496C120.954 39.4377 121.006 39.4259 121.051 39.4141L121.186 39.9858C121.125 40.0095 121.049 40.0308 120.959 40.0497C120.869 40.071 120.758 40.0817 120.625 40.0817C120.393 40.0817 120.169 40.0308 119.954 39.929C119.741 39.8272 119.566 39.6757 119.428 39.4744C119.291 39.2732 119.222 39.0234 119.222 38.7251V33.2386ZM124.594 40.1136C124.085 40.1136 123.645 39.9953 123.273 39.7585C122.902 39.5194 122.614 39.1892 122.411 38.7678C122.209 38.344 122.109 37.8563 122.109 37.3047C122.109 36.7554 122.209 36.2678 122.411 35.8416C122.614 35.4131 122.895 35.0781 123.252 34.8366C123.612 34.5928 124.027 34.4709 124.499 34.4709C124.795 34.4709 125.08 34.5253 125.354 34.6342C125.629 34.7408 125.875 34.9053 126.093 35.1278C126.313 35.348 126.487 35.6262 126.615 35.9624C126.743 36.2962 126.807 36.6915 126.807 37.1484V37.4609H122.545V36.9034H126.161C126.161 36.553 126.089 36.2382 125.947 35.9588C125.808 35.6771 125.612 35.4545 125.362 35.2912C125.113 35.1278 124.825 35.0462 124.499 35.0462C124.153 35.0462 123.849 35.1385 123.586 35.3232C123.323 35.5078 123.117 35.7517 122.968 36.0547C122.821 36.3577 122.747 36.6892 122.744 37.049V37.3828C122.744 37.8161 122.819 38.1948 122.968 38.5192C123.12 38.8411 123.334 39.0909 123.611 39.2685C123.888 39.446 124.216 39.5348 124.594 39.5348C124.853 39.5348 125.079 39.4946 125.273 39.4141C125.469 39.3336 125.634 39.2259 125.766 39.0909C125.901 38.9536 126.003 38.8033 126.072 38.6399L126.672 38.8352C126.589 39.0649 126.453 39.2768 126.263 39.4709C126.076 39.665 125.842 39.8213 125.56 39.9396C125.281 40.0556 124.959 40.1136 124.594 40.1136ZM128.2 40V34.5455H128.814V35.3835H128.86C128.969 35.1089 129.159 34.8875 129.428 34.7195C129.701 34.549 130.008 34.4638 130.352 34.4638C130.404 34.4638 130.462 34.465 130.526 34.4673C130.59 34.4697 130.643 34.4721 130.686 34.4744V35.1172C130.657 35.1125 130.607 35.1054 130.536 35.0959C130.465 35.0864 130.388 35.0817 130.306 35.0817C130.021 35.0817 129.768 35.142 129.546 35.2628C129.325 35.3812 129.151 35.5457 129.024 35.7564C128.896 35.9671 128.832 36.2074 128.832 36.4773V40H128.2ZM133.562 40.1136C133.115 40.1136 132.723 39.9953 132.387 39.7585C132.05 39.5218 131.788 39.1915 131.598 38.7678C131.411 38.344 131.318 37.8504 131.318 37.2869C131.318 36.7259 131.411 36.2346 131.598 35.8132C131.788 35.3894 132.052 35.0604 132.39 34.826C132.729 34.5893 133.123 34.4709 133.573 34.4709C133.904 34.4709 134.18 34.5301 134.4 34.6484C134.62 34.7644 134.797 34.9089 134.929 35.0817C135.062 35.2545 135.165 35.4226 135.238 35.5859H135.295V32.7273H135.931V40H135.313V38.9879H135.238C135.165 39.1536 135.061 39.3241 134.926 39.4993C134.791 39.6721 134.612 39.8177 134.389 39.9361C134.169 40.0545 133.893 40.1136 133.562 40.1136ZM133.637 39.5348C133.989 39.5348 134.29 39.4389 134.539 39.2472C134.787 39.053 134.977 38.7867 135.107 38.4482C135.239 38.1072 135.306 37.7166 135.306 37.2763C135.306 36.8407 135.24 36.456 135.11 36.1222C134.98 35.786 134.791 35.5232 134.542 35.3338C134.294 35.142 133.992 35.0462 133.637 35.0462C133.272 35.0462 132.964 35.1456 132.713 35.3445C132.465 35.541 132.275 35.8073 132.145 36.1435C132.017 36.4796 131.953 36.8572 131.953 37.2763C131.953 37.7 132.018 38.0824 132.149 38.4233C132.279 38.7642 132.468 39.0353 132.717 39.2365C132.968 39.4354 133.274 39.5348 133.637 39.5348ZM139.254 40.1243C138.925 40.1243 138.625 40.0604 138.352 39.9325C138.08 39.8023 137.864 39.6153 137.703 39.3714C137.542 39.1252 137.461 38.8269 137.461 38.4766C137.461 38.2067 137.512 37.9794 137.614 37.7947C137.716 37.6101 137.86 37.4586 138.047 37.3402C138.234 37.2218 138.455 37.1283 138.711 37.0597C138.967 36.991 139.249 36.9377 139.556 36.8999C139.862 36.862 140.12 36.8288 140.33 36.8004C140.544 36.772 140.706 36.727 140.817 36.6655C140.928 36.6039 140.984 36.5045 140.984 36.3672V36.2393C140.984 35.8677 140.873 35.5753 140.65 35.3622C140.43 35.1468 140.113 35.0391 139.698 35.0391C139.305 35.0391 138.985 35.1255 138.736 35.2983C138.49 35.4711 138.317 35.6747 138.218 35.9091L137.617 35.6925C137.74 35.3942 137.911 35.1562 138.129 34.9787C138.347 34.7988 138.59 34.6697 138.86 34.5916C139.13 34.5111 139.404 34.4709 139.681 34.4709C139.889 34.4709 140.106 34.4981 140.33 34.5526C140.558 34.607 140.768 34.7017 140.963 34.8366C141.157 34.9692 141.314 35.1551 141.435 35.3942C141.556 35.6309 141.616 35.9316 141.616 36.2962V40H140.984V39.1371H140.945C140.869 39.2981 140.757 39.4543 140.607 39.6058C140.458 39.7573 140.271 39.8816 140.046 39.9787C139.821 40.0758 139.557 40.1243 139.254 40.1243ZM139.34 39.5455C139.676 39.5455 139.967 39.4709 140.213 39.3217C140.459 39.1726 140.649 38.9749 140.781 38.7287C140.916 38.4801 140.984 38.2067 140.984 37.9084V37.12C140.936 37.165 140.857 37.2053 140.746 37.2408C140.637 37.2763 140.51 37.3082 140.366 37.3366C140.224 37.3627 140.082 37.3852 139.94 37.4041C139.798 37.4231 139.67 37.4396 139.556 37.4538C139.249 37.4917 138.986 37.5509 138.768 37.6314C138.55 37.7119 138.383 37.8232 138.267 37.9652C138.151 38.1049 138.093 38.2848 138.093 38.505C138.093 38.8364 138.212 39.0933 138.448 39.2756C138.685 39.4555 138.982 39.5455 139.34 39.5455ZM143.297 40V34.5455H143.912V35.3835H143.969C144.077 35.1018 144.259 34.8804 144.512 34.7195C144.768 34.5561 145.074 34.4744 145.432 34.4744C145.808 34.4744 146.117 34.5632 146.358 34.7408C146.602 34.916 146.785 35.1574 146.905 35.4652H146.952C147.075 35.1622 147.275 34.9219 147.552 34.7443C147.831 34.5644 148.17 34.4744 148.567 34.4744C149.074 34.4744 149.474 34.6342 149.768 34.9538C150.061 35.2711 150.208 35.7351 150.208 36.3459V40H149.576V36.3459C149.576 35.915 149.466 35.5919 149.246 35.3764C149.025 35.161 148.735 35.0533 148.376 35.0533C147.959 35.0533 147.638 35.1811 147.413 35.4368C147.188 35.6925 147.076 36.0168 147.076 36.4098V40H146.43V36.2891C146.43 35.9197 146.327 35.6214 146.121 35.3942C145.915 35.1669 145.625 35.0533 145.251 35.0533C145 35.0533 144.773 35.1148 144.572 35.2379C144.373 35.361 144.216 35.5327 144.1 35.7528C143.986 35.9706 143.93 36.2216 143.93 36.5057V40H143.297Z" fill="black"/>
</svg>
