<svg width="48" height="48" viewBox="0 0 48 48" fill="none" xmlns="http://www.w3.org/2000/svg">
<path d="M24 32C25.6 32 27.025 31.525 28.275 30.575C29.525 29.625 30.4333 28.4 31 26.9H17C17.5667 28.4 18.475 29.625 19.725 30.575C20.975 31.525 22.4 32 24 32ZM19 24C19.8333 24 20.5417 23.7083 21.125 23.125C21.7083 22.5417 22 21.8333 22 21C22 20.1667 21.7083 19.4583 21.125 18.875C20.5417 18.2917 19.8333 18 19 18C18.1667 18 17.4583 18.2917 16.875 18.875C16.2917 19.4583 16 20.1667 16 21C16 21.8333 16.2917 22.5417 16.875 23.125C17.4583 23.7083 18.1667 24 19 24ZM29 24C29.8333 24 30.5417 23.7083 31.125 23.125C31.7083 22.5417 32 21.8333 32 21C32 20.1667 31.7083 19.4583 31.125 18.875C30.5417 18.2917 29.8333 18 29 18C28.1667 18 27.4583 18.2917 26.875 18.875C26.2917 19.4583 26 20.1667 26 21C26 21.8333 26.2917 22.5417 26.875 23.125C27.4583 23.7083 28.1667 24 29 24ZM15.25 12.8L20.85 5.55C21.25 5.01667 21.725 4.625 22.275 4.375C22.825 4.125 23.4 4 24 4C24.6 4 25.175 4.125 25.725 4.375C26.275 4.625 26.75 5.01667 27.15 5.55L32.75 12.8L41.25 15.65C42.1167 15.9167 42.8 16.4083 43.3 17.125C43.8 17.8417 44.05 18.6333 44.05 19.5C44.05 19.9 43.9917 20.3 43.875 20.7C43.7583 21.1 43.5667 21.4833 43.3 21.85L37.8 29.65L38 37.85C38.0333 39.0167 37.65 40 36.85 40.8C36.05 41.6 35.1167 42 34.05 42C33.9833 42 33.6167 41.95 32.95 41.85L24 39.35L15.05 41.85C14.8833 41.9167 14.7 41.9583 14.5 41.975C14.3 41.9917 14.1167 42 13.95 42C12.8833 42 11.95 41.6 11.15 40.8C10.35 40 9.96667 39.0167 10 37.85L10.2 29.6L4.75 21.85C4.48333 21.4833 4.29167 21.1 4.175 20.7C4.05833 20.3 4 19.9 4 19.5C4 18.6667 4.24167 17.8917 4.725 17.175C5.20833 16.4583 5.88333 15.95 6.75 15.65L15.25 12.8Z" fill="#003DA5"/>
</svg>
